<svg width="101" height="101" viewBox="0 0 101 101" fill="none" xmlns="http://www.w3.org/2000/svg">
<g clip-path="url(#clip0_1543_21027)">
<path d="M42.1667 63.1666V71.5C42.1667 73.8041 40.3 75.6666 38 75.6666C35.7 75.6666 33.8333 73.8041 33.8333 71.5V63.1666C33.8333 60.8625 35.7 59 38 59C40.3 59 42.1667 60.8625 42.1667 63.1666ZM96.8458 25.6416C94.6 25.8916 92.5 24.2416 92.25 21.9541C91.4542 14.6875 85.0125 8.99996 77.5833 8.99996C69.5417 8.99996 63 15.5416 63 23.5833V35.7416C70.35 38.9625 75.5 46.3083 75.5 54.8333V79.8333C75.5 91.3208 66.1542 100.667 54.6667 100.667H21.3333C9.84583 100.667 0.5 91.3208 0.5 79.8333V54.8333C0.5 43.3458 9.84583 34 21.3333 34H54.6667V23.5833C54.6667 10.95 64.9458 0.666626 77.5833 0.666626C89.3917 0.666626 99.2583 9.42912 100.533 21.0458C100.783 23.3333 99.1333 25.3875 96.8458 25.6416ZM54.6667 42.3333H21.3333C14.4417 42.3333 8.83333 47.9416 8.83333 54.8333V79.8333C8.83333 86.725 14.4417 92.3333 21.3333 92.3333H54.6667C61.5583 92.3333 67.1667 86.725 67.1667 79.8333V54.8333C67.1667 47.9416 61.5583 42.3333 54.6667 42.3333Z" fill="#F9F9F9"/>
</g>
<defs>
<clipPath id="clip0_1543_21027">
<rect width="100" height="100" fill="white" transform="translate(0.5 0.666626)"/>
</clipPath>
</defs>
</svg>
