<svg width="101" height="101" viewBox="0 0 101 101" fill="none" xmlns="http://www.w3.org/2000/svg">
<g clip-path="url(#clip0_1625_21645)">
<path d="M71.3333 50.6666C71.3333 52.9708 69.4667 54.8333 67.1667 54.8333H54.6667V67.3333C54.6667 69.6375 52.8 71.5 50.5 71.5C48.2 71.5 46.3333 69.6375 46.3333 67.3333V54.8333H33.8333C31.5333 54.8333 29.6667 52.9708 29.6667 50.6666C29.6667 48.3625 31.5333 46.5 33.8333 46.5H46.3333V34C46.3333 31.6958 48.2 29.8333 50.5 29.8333C52.8 29.8333 54.6667 31.6958 54.6667 34V46.5H67.1667C69.4667 46.5 71.3333 48.3625 71.3333 50.6666ZM100.5 21.5V79.8333C100.5 91.3208 91.1542 100.667 79.6667 100.667H21.3333C9.84583 100.667 0.5 91.3208 0.5 79.8333V21.5C0.5 10.0125 9.84583 0.666626 21.3333 0.666626H79.6667C91.1542 0.666626 100.5 10.0125 100.5 21.5ZM92.1667 21.5C92.1667 14.6083 86.5583 8.99996 79.6667 8.99996H21.3333C14.4417 8.99996 8.83333 14.6083 8.83333 21.5V79.8333C8.83333 86.725 14.4417 92.3333 21.3333 92.3333H79.6667C86.5583 92.3333 92.1667 86.725 92.1667 79.8333V21.5Z" fill="#F9F9F9"/>
</g>
<defs>
<clipPath id="clip0_1625_21645">
<rect width="100" height="100" fill="white" transform="translate(0.5 0.666626)"/>
</clipPath>
</defs>
</svg>
