<svg width="100" height="100" viewBox="0 0 100 100" fill="none" xmlns="http://www.w3.org/2000/svg">
<g clip-path="url(#clip0_1710_32044)">
<path d="M62.3042 26.9416C63.2375 32.2375 60.7167 37.5333 56.0292 40.1208C54.1667 41.1458 54.1667 41.4458 54.1667 41.6666C54.1667 43.9708 52.3042 45.8333 50 45.8333C47.6959 45.8333 45.8334 43.9708 45.8334 41.6666C45.8334 36.2166 50.1584 33.8375 52.0042 32.8208C53.2084 32.1541 54.4834 30.5916 54.0959 28.3833C53.8084 26.7458 52.4209 25.3583 50.7917 25.075C49.5 24.8333 48.2792 25.1625 47.325 25.975C46.375 26.7666 45.8334 27.9333 45.8334 29.1708C45.8334 31.475 43.9709 33.3375 41.6667 33.3375C39.3625 33.3375 37.5 31.475 37.5 29.1708C37.5 25.4666 39.1292 21.975 41.9667 19.5916C44.8042 17.2083 48.5417 16.1958 52.2334 16.8708C57.275 17.7499 61.4209 21.8916 62.3042 26.9416ZM50 50C46.55 50 43.75 52.8 43.75 56.25C43.75 59.7 46.55 62.5 50 62.5C53.45 62.5 56.25 59.7 56.25 56.25C56.25 52.8 53.45 50 50 50ZM87.5 37.5C87.5 48.2875 82.8417 58.5583 74.7167 65.6833C69.525 70.2333 66.6667 76.1499 66.6667 82.3416V84.625C66.6667 93.1041 59.7709 100 51.2917 100H48.7125C40.2334 100 33.3375 93.1041 33.3375 84.625V83.9583C33.3375 77.0166 30.1834 70.2583 24.4542 64.9333C15.5 56.5958 11.2584 44.8125 12.8167 32.5916C14.9584 15.7541 28.7667 2.15412 45.65 0.245782C56.3209 -0.941718 67.025 2.42495 74.975 9.53328C82.9334 16.6416 87.5 26.8375 87.5 37.5041V37.5ZM58.3334 84.625V83.3333H41.6584C41.6584 83.5416 41.6667 83.75 41.6667 83.9541V84.6208C41.6667 88.5041 44.8292 91.6625 48.7084 91.6625H51.2875C55.1709 91.6625 58.3292 88.5 58.3292 84.6208L58.3334 84.625ZM79.1667 37.5C79.1667 29.2041 75.6125 21.2708 69.425 15.7416C64.0084 10.9041 57.2209 8.33328 50.0334 8.33328C48.8959 8.33328 47.7417 8.39578 46.5875 8.52912C33.475 10.0083 22.7459 20.575 21.0834 33.6416C19.8667 43.1625 23.1667 52.3416 30.1292 58.8291C35.1334 63.4791 38.6209 69.0375 40.3709 75H59.3209C60.8959 69.1625 64.3167 63.7125 69.225 59.4166C75.5459 53.875 79.1667 45.8875 79.1667 37.5Z" fill="#F9F9F9"/>
</g>
<defs>
<clipPath id="clip0_1710_32044">
<rect width="100" height="100" fill="white"/>
</clipPath>
</defs>
</svg>
