<svg width="101" height="101" viewBox="0 0 101 101" fill="none" xmlns="http://www.w3.org/2000/svg">
<g clip-path="url(#clip0_1191_16249)">
<path d="M95.6168 41.6416L81.446 27.4708C79.4127 12.1249 66.1627 0.333252 50.5002 0.333252C37.0418 0.333252 25.4377 8.82908 21.096 21.2833C20.2293 21.3666 19.3627 21.4999 18.5002 21.6833C9.60017 23.5458 2.51684 30.8458 0.883502 39.8416C-0.628998 48.2083 2.396 56.3666 8.8335 61.6458V62.8291C8.8335 63.9374 9.271 64.9958 10.0543 65.7749L13.3585 69.0791L10.0543 72.3832C8.42517 74.0124 8.42517 76.6457 10.0543 78.2749L13.3585 81.5791L10.0543 84.8832C9.271 85.6666 8.8335 86.7249 8.8335 87.8291C8.8335 88.9333 9.271 89.9957 10.0543 90.7749L16.921 97.6374C18.7127 99.4291 21.0627 100.329 23.421 100.329C25.771 100.329 28.1293 99.4291 29.921 97.6374L34.3418 93.2124C36.7002 90.8541 38.0043 87.7124 38.0043 84.3749V61.7458C43.2627 57.4083 46.3377 50.9583 46.3377 44.0749C46.3377 37.1416 43.2502 30.6541 37.8627 26.2791C35.4252 24.2999 32.6335 22.8999 29.6835 22.0666C33.3377 14.0083 41.3502 8.66242 50.5085 8.66242C61.8418 8.66242 71.3793 17.0999 73.0668 28.1291L59.5585 41.6374C56.4543 44.7374 54.6752 49.0333 54.6752 53.4207V83.6624C54.6752 92.8541 62.1502 100.329 71.3418 100.329H83.8418C93.0335 100.329 100.509 92.8541 100.509 83.6624V53.4207C100.509 49.0333 98.7293 44.7374 95.6252 41.6374L95.6168 41.6416ZM38.0002 44.0833C38.0002 48.9541 35.5752 53.4833 31.5127 56.2041C30.3585 56.9791 29.6668 58.2749 29.6668 59.6666V84.3833C29.6668 85.4791 29.2252 86.5541 28.446 87.3291L24.0252 91.7541C23.7418 92.0374 23.096 92.0374 22.8127 91.7541L18.8918 87.8374L22.196 84.5332C23.8252 82.9041 23.8252 80.2708 22.196 78.6416L18.8918 75.3374L22.196 72.0332C23.8252 70.4041 23.8252 67.7707 22.196 66.1416L17.1668 61.1124V59.5624C17.1668 58.1749 16.4752 56.8749 15.3252 56.1041C10.421 52.8124 8.0335 47.1541 9.08767 41.3374C10.121 35.6416 14.5918 31.0166 20.2127 29.8416C24.746 28.8958 29.1293 29.9333 32.6085 32.7583C36.0377 35.5457 38.0043 39.6708 38.0043 44.0874L38.0002 44.0833ZM92.1668 83.6666C92.1668 88.2624 88.4293 91.9999 83.8335 91.9999H71.3335C66.7377 91.9999 63.0002 88.2624 63.0002 83.6666V53.4249C63.0002 51.2332 63.8918 49.0833 65.4418 47.5332L77.5835 35.3916L89.7252 47.5332C91.2752 49.0833 92.1668 51.2332 92.1668 53.4249V83.6666ZM23.4168 33.6666C26.8668 33.6666 29.6668 36.4666 29.6668 39.9166C29.6668 43.3666 26.8668 46.1666 23.4168 46.1666C19.9668 46.1666 17.1668 43.3666 17.1668 39.9166C17.1668 36.4666 19.9668 33.6666 23.4168 33.6666Z" fill="#F2EBE3"/>
</g>
<defs>
<clipPath id="clip0_1191_16249">
<rect width="100" height="100" fill="white" transform="translate(0.5 0.333252)"/>
</clipPath>
</defs>
</svg>
