<svg width="101" height="101" viewBox="0 0 101 101" fill="none" xmlns="http://www.w3.org/2000/svg">
<g clip-path="url(#clip0_1191_16269)">
<path d="M96.8297 4.00821C95.3359 2.49624 93.4773 1.39511 91.4337 0.811193C89.39 0.227281 87.2302 0.18033 85.1631 0.674875L18.4964 14.7165C14.6571 15.2431 11.0411 16.831 8.05558 19.3016C5.07003 21.7722 2.83354 25.0272 1.59797 28.7001C0.362392 32.3731 0.17681 36.3181 1.06212 40.0908C1.94743 43.8635 3.86847 47.3141 6.60891 50.054L13.7672 57.2082C14.1547 57.5955 14.4619 58.0554 14.6714 58.5616C14.8809 59.0678 14.9885 59.6104 14.9881 60.1582V73.3582C14.9973 75.2142 15.4245 77.0442 16.2381 78.7124L16.2047 78.7415L16.3131 78.8499C17.534 81.3046 19.528 83.2898 21.9881 84.4999L22.0964 84.6082L22.1256 84.5749C23.7937 85.3884 25.6238 85.8157 27.4797 85.8249H40.6797C41.7841 85.824 42.8437 86.2616 43.6256 87.0415L50.7797 94.1957C52.6986 96.1358 54.9824 97.6769 57.4997 98.7303C60.0169 99.7837 62.7177 100.328 65.4464 100.333C67.7204 100.33 69.9788 99.9589 72.1339 99.2332C75.7733 98.0382 79.0063 95.8499 81.4682 92.9153C83.9302 89.9807 85.5231 86.4166 86.0672 82.6249L100.13 15.8124C100.65 13.7275 100.619 11.5433 100.041 9.47389C99.4622 7.40448 98.3557 5.521 96.8297 4.00821ZM19.6672 51.3249L12.5047 44.1707C10.8369 42.543 9.66796 40.4734 9.1351 38.2047C8.60224 35.936 8.72758 33.5623 9.49641 31.3624C10.2418 29.1054 11.6198 27.11 13.4664 25.6135C15.313 24.117 17.5506 23.1823 19.9131 22.9207L85.9172 9.02487L23.3131 71.6374V60.1582C23.3194 58.5179 23.0004 56.8927 22.3746 55.3765C21.7488 53.8603 20.8286 52.4832 19.6672 51.3249ZM77.8797 81.1999C77.5598 83.5013 76.6048 85.6679 75.1218 87.4567C73.6389 89.2455 71.6867 90.5855 69.4845 91.3263C67.2822 92.0672 64.917 92.1796 62.6545 91.6509C60.3919 91.1222 58.3215 89.9733 56.6756 88.3332L49.5089 81.1665C48.3521 80.0034 46.9762 79.0812 45.4607 78.4532C43.9452 77.8253 42.3202 77.5041 40.6797 77.5082H29.2006L91.8131 14.9165L77.8797 81.1999Z" fill="#F2EBE3"/>
</g>
<defs>
<clipPath id="clip0_1191_16269">
<rect width="100" height="100" fill="white" transform="translate(0.5 0.333252)"/>
</clipPath>
</defs>
</svg>
