<svg width="101" height="101" viewBox="0 0 101 101" fill="none" xmlns="http://www.w3.org/2000/svg">
<g clip-path="url(#clip0_1808_46492)">
<path d="M84.0875 54.5791C86.5292 57.0208 86.5292 60.9791 84.0875 63.4166C81.6458 65.8583 77.6875 65.8583 75.25 63.4166C72.8083 60.975 72.8083 57.0166 75.25 54.5791C77.6917 52.1416 81.65 52.1375 84.0875 54.5791ZM93.7875 77.2833C88.9167 82.1583 82.1458 84.5083 75.4 83.8875L62.3458 96.9416C60.0167 99.2708 56.8 100.604 53.5083 100.604H46.3667C41.8 100.604 38.0667 96.8833 38.0458 92.3125L38.0083 84.0291C38 82.3583 38.6458 80.7833 39.8292 79.5958C41.0125 78.4083 42.5833 77.7541 44.2583 77.7541H46.3L46.3167 75.6208C46.3417 72.2041 49.1458 69.4208 52.5667 69.4208H55.7417V67.7833C52.7833 58.1541 56.3083 47.9333 64.65 42.1583C72.1708 36.9458 82.3333 36.8 89.9458 41.7708C95.8583 45.6333 99.6583 51.8083 100.375 58.7125C101.096 65.6125 98.6917 72.3875 93.7875 77.2916V77.2833ZM92.0875 59.5625C91.6292 55.1041 89.2458 51.2583 85.3917 48.7416C80.5833 45.6 74.1583 45.7083 69.3958 49C63.95 52.775 61.7208 59.5166 63.8542 65.7791C64.0042 66.2125 64.0792 66.6666 64.0792 67.1208V73.5791C64.0792 75.8833 62.2167 77.7458 59.9125 77.7458H54.6417L54.6125 81.9458C54.5958 84.2333 52.7333 86.0791 50.4458 86.0791H46.3625L46.3875 92.2666H53.5167C54.6125 92.2666 55.6833 91.825 56.4625 91.0458L70.9917 76.5166C71.975 75.5375 73.3875 75.0916 74.7458 75.3791C79.5417 76.3291 84.4583 74.8375 87.9 71.3916C91.0208 68.2708 92.5417 63.9583 92.0875 59.5625ZM8.83333 25.6666C8.83333 11.8791 20.0458 0.666626 33.8333 0.666626C47.6208 0.666626 58.8333 11.8791 58.8333 25.6666C58.8333 39.4541 47.6208 50.6666 33.8333 50.6666C20.0458 50.6666 8.83333 39.4541 8.83333 25.6666ZM17.1667 25.6666C17.1667 34.8583 24.6417 42.3333 33.8333 42.3333C43.025 42.3333 50.5 34.8583 50.5 25.6666C50.5 16.475 43.025 8.99996 33.8333 8.99996C24.6417 8.99996 17.1667 16.475 17.1667 25.6666ZM42.125 64.0541C42.4542 61.7791 40.8708 59.6666 38.5917 59.3375C37.025 59.1125 35.4208 59 33.8333 59C15.4542 59 0.5 73.9541 0.5 92.3333V96.5C0.5 98.8041 2.36667 100.667 4.66667 100.667C6.96667 100.667 8.83333 98.8041 8.83333 96.5V92.3333C8.83333 78.5458 20.0458 67.3333 33.8333 67.3333C35.0292 67.3333 36.2292 67.4208 37.4083 67.5916C39.675 67.8958 41.8 66.3333 42.125 64.0541Z" fill="#F9F9F9"/>
</g>
<defs>
<clipPath id="clip0_1808_46492">
<rect width="100" height="100" fill="white" transform="translate(0.5 0.666626)"/>
</clipPath>
</defs>
</svg>
