<svg width="100" height="100" viewBox="0 0 100 100" fill="none" xmlns="http://www.w3.org/2000/svg">
<g clip-path="url(#clip0_1191_14006)">
<path d="M100 66.6663V87.4997C100 90.8149 98.683 93.9943 96.3388 96.3385C93.9946 98.6827 90.8152 99.9997 87.5 99.9997H66.6667C60.8212 99.9937 55.0802 98.4506 50.0194 95.5253C44.9586 92.6 40.756 88.3953 37.8333 83.333C40.9745 83.3105 44.1049 82.9642 47.175 82.2997C49.5131 85.2232 52.4791 87.5831 55.8533 89.2045C59.2274 90.826 62.9232 91.6673 66.6667 91.6663H87.5C88.6051 91.6663 89.6649 91.2273 90.4463 90.4459C91.2277 89.6646 91.6667 88.6047 91.6667 87.4997V66.6663C91.6657 62.9215 90.8217 59.2249 89.1974 55.8507C87.573 52.4764 85.2099 49.5111 82.2833 47.1747C82.9535 44.1051 83.3054 40.9747 83.3333 37.833C88.3956 40.7557 92.6003 44.9583 95.5256 50.019C98.4509 55.0798 99.994 60.8209 100 66.6663ZM74.9042 40.2122C75.2939 34.844 74.5234 29.4548 72.6452 24.4109C70.7669 19.367 67.8249 14.7864 64.0191 10.9806C60.2132 7.17471 55.6327 4.23271 50.5888 2.35448C45.5448 0.476249 40.1557 -0.294198 34.7875 0.0954925C25.2746 1.18188 16.4872 5.70873 10.0799 12.8236C3.67261 19.9385 0.0876131 29.1504 0 38.7247L0 59.7247C0 70.2747 6.27917 74.9997 12.5 74.9997H36.25C45.8284 74.9172 55.0459 71.3346 62.1658 64.927C69.2857 58.5193 73.8164 49.7289 74.9042 40.2122ZM58.125 16.8788C61.0831 19.8434 63.3698 23.4088 64.8305 27.3338C66.2912 31.2587 66.8918 35.4516 66.5917 39.6288C65.7023 47.0608 62.1271 53.9114 56.5389 58.8911C50.9507 63.8707 43.7349 66.636 36.25 66.6663H12.5C8.63333 66.6663 8.33333 61.3538 8.33333 59.7247V38.7247C8.36807 31.2429 11.136 24.0318 16.1163 18.4483C21.0966 12.8649 27.9458 9.29411 35.375 8.40799C36.0667 8.35799 36.7583 8.33299 37.45 8.33299C41.2886 8.32942 45.0903 9.08231 48.6378 10.5486C52.1854 12.015 55.4092 14.166 58.125 16.8788Z" fill="#F2EBE3"/>
</g>
<defs>
<clipPath id="clip0_1191_14006">
<rect width="100" height="100" fill="white"/>
</clipPath>
</defs>
</svg>
