<svg width="101" height="101" viewBox="0 0 101 101" fill="none" xmlns="http://www.w3.org/2000/svg">
<g clip-path="url(#clip0_1901_48190)">
<path d="M96.3333 23.5833C96.3333 20.3833 94.8542 17.5541 92.5792 15.6416C93.6292 14.1041 94.25 12.25 94.25 10.25C94.25 4.96246 89.9542 0.666626 84.6667 0.666626H75.5V34H85.9167C91.6625 34 96.3333 29.3291 96.3333 23.5833ZM82.1667 7.33329H84.6667C86.275 7.33329 87.5833 8.64163 87.5833 10.25C87.5833 11.8583 86.275 13.1666 84.6667 13.1666H82.1667V7.33329ZM82.1667 19.8333H85.9167C87.9833 19.8333 89.6667 21.5166 89.6667 23.5833C89.6667 25.65 87.9833 27.3333 85.9167 27.3333H82.1667V19.8333ZM13.8083 40.6666H23.7208L24.95 46.5H31.75L26.1708 19.9458C25.6083 17.1625 23.9917 14.8916 21.8583 13.8666C20.8917 13.4 19.875 13.1666 18.8667 13.1666C17.6917 13.1666 16.5292 13.4791 15.4667 14.1041C13.5042 15.2583 12.0958 17.3375 11.6083 19.7541L5.92083 46.4958H12.5208L13.8083 40.6625V40.6666ZM18.1417 21.0708C18.2667 20.45 18.5792 20.0166 18.875 19.8375L18.9458 19.8625C19.0458 19.9291 19.45 20.3541 19.6458 21.3166L22.3167 34H15.2833L18.1417 21.0708ZM100.5 38.85L0.5 57.8958V66.35L45.1208 57.85L34.025 93.1666L33.8333 100.667H67.1667V94.4166L55.2167 55.925L100.5 47.3V38.85ZM43.0208 92.3375L50.5 68.5375L57.9792 92.3375H43.0208Z" fill="#F9F9F9"/>
</g>
<defs>
<clipPath id="clip0_1901_48190">
<rect width="100" height="100" fill="white" transform="translate(0.5 0.666626)"/>
</clipPath>
</defs>
</svg>
