<svg width="101" height="101" viewBox="0 0 101 101" fill="none" xmlns="http://www.w3.org/2000/svg">
<g clip-path="url(#clip0_1558_18278)">
<path d="M81.0554 61.7791C77.905 61.7817 74.8026 62.5508 72.0158 64.02C69.229 65.4893 66.8416 67.6146 65.0596 70.2125L37.9387 57.9666C39.865 53.3151 39.8725 48.0903 37.9596 43.4333L65.0429 31.125C67.684 34.9448 71.6067 37.6915 76.0995 38.8668C80.5923 40.0422 85.3576 39.5683 89.5309 37.5312C93.7042 35.4941 97.0092 32.0287 98.8464 27.7636C100.684 23.4984 100.931 18.7161 99.5444 14.284C98.1576 9.85193 95.2282 6.06369 91.2876 3.60643C87.347 1.14918 82.6562 0.185672 78.066 0.890687C73.4759 1.5957 69.2904 3.92254 66.2689 7.44913C63.2473 10.9757 61.5898 15.4685 61.5971 20.1125C61.6147 21.2116 61.7262 22.3073 61.9304 23.3875L33.1387 36.4708C30.3735 33.88 26.9117 32.1534 23.1786 31.5031C19.4456 30.8528 15.6038 31.3071 12.1254 32.8102C8.64702 34.3133 5.68341 36.7997 3.59871 39.964C1.514 43.1282 0.398998 46.8326 0.390672 50.6218C0.382346 54.4111 1.48106 58.1203 3.55184 61.2937C5.62262 64.4671 8.57527 66.9665 12.047 68.4848C15.5188 70.0032 19.3585 70.4744 23.0944 69.8405C26.8303 69.2066 30.2996 67.4952 33.0762 64.9166L61.9429 77.95C61.7424 79.0292 61.6323 80.1233 61.6137 81.2208C61.6129 85.0672 62.7528 88.8274 64.8892 92.0259C67.0256 95.2244 70.0626 97.7174 73.616 99.1898C77.1695 100.662 81.0797 101.048 84.8522 100.297C88.6247 99.5472 92.09 97.695 94.8098 94.9752C97.5296 92.2554 99.3818 88.7901 100.132 85.0176C100.882 81.2451 100.497 77.3349 99.0244 73.7814C97.552 70.228 95.059 67.191 91.8605 65.0546C88.662 62.9182 84.9018 61.7783 81.0554 61.7791ZM81.0554 8.99995C83.2534 8.99913 85.4023 9.65017 87.2303 10.8707C89.0583 12.0913 90.4833 13.8265 91.325 15.857C92.1667 17.8875 92.3874 20.122 91.959 22.2778C91.5307 24.4337 90.4727 26.4142 88.9188 27.9687C87.3648 29.5232 85.3848 30.582 83.229 31.0111C81.0733 31.4402 78.8387 31.2204 76.8079 30.3795C74.7772 29.5385 73.0414 28.1142 71.8201 26.2867C70.5989 24.4591 69.9471 22.3105 69.9471 20.1125C69.9493 17.1666 71.1202 14.342 73.2028 12.2586C75.2854 10.1752 78.1096 9.00326 81.0554 8.99995ZM19.9471 61.7791C17.749 61.7799 15.6001 61.1289 13.7721 59.9084C11.9442 58.6878 10.5192 56.9525 9.67748 54.9221C8.83576 52.8916 8.6151 50.6571 9.04341 48.5012C9.47171 46.3453 10.5297 44.3649 12.0837 42.8104C13.6376 41.2558 15.6177 40.1971 17.7734 39.768C19.9291 39.3388 22.1637 39.5587 24.1945 40.3996C26.2253 41.2406 27.9611 42.6649 29.1823 44.4924C30.4035 46.3199 31.0554 48.4686 31.0554 50.6666C31.0521 53.6121 29.8808 56.4361 27.7984 58.5192C25.7161 60.6024 22.8925 61.7747 19.9471 61.7791ZM81.0554 92.3333C78.8575 92.3333 76.7091 91.6816 74.8816 90.4605C73.0542 89.2394 71.6299 87.5039 70.7888 85.4734C69.9477 83.4428 69.7276 81.2085 70.1564 79.0529C70.5852 76.8972 71.6436 74.9172 73.1977 73.3631C74.7518 71.809 76.7318 70.7506 78.8875 70.3218C81.0431 69.893 83.2774 70.1131 85.308 70.9542C87.3385 71.7953 89.074 73.2196 90.2951 75.047C91.5162 76.8745 92.1679 79.0229 92.1679 81.2208C92.1657 84.1673 90.9942 86.9926 88.9107 89.0761C86.8272 91.1596 84.0019 92.3311 81.0554 92.3333Z" fill="#F2EBE3"/>
</g>
<defs>
<clipPath id="clip0_1558_18278">
<rect width="100" height="100" fill="white" transform="translate(0.5 0.666626)"/>
</clipPath>
</defs>
</svg>
