<svg width="101" height="101" viewBox="0 0 101 101" fill="none" xmlns="http://www.w3.org/2000/svg">
<g clip-path="url(#clip0_1582_20304)">
<path d="M54.6654 84C60.1887 83.9933 65.4839 81.7963 69.3895 77.8907C73.295 73.9851 75.4921 68.6899 75.4987 63.1666V26.6791C75.5052 24.489 75.0769 22.3193 74.2386 20.2959C73.4004 18.2725 72.1688 16.4356 70.6154 14.8916L61.2737 5.54997C59.7298 3.99653 57.8929 2.76498 55.8695 1.92672C53.846 1.08846 51.6764 0.660157 49.4862 0.666637H29.6654C24.1421 0.673253 18.8469 2.87031 14.9413 6.77589C11.0357 10.6815 8.83865 15.9767 8.83203 21.5V63.1666C8.83865 68.6899 11.0357 73.9851 14.9413 77.8907C18.8469 81.7963 24.1421 83.9933 29.6654 84H54.6654ZM17.1654 63.1666V21.5C17.1654 18.1848 18.4823 15.0053 20.8265 12.6611C23.1707 10.3169 26.3502 8.99997 29.6654 8.99997C29.6654 8.99997 50.1612 9.0583 50.4987 9.09997V17.3333C50.4987 19.5434 51.3767 21.6631 52.9395 23.2259C54.5023 24.7887 56.6219 25.6666 58.832 25.6666H67.0654C67.107 26.0041 67.1654 63.1666 67.1654 63.1666C67.1654 66.4818 65.8484 69.6613 63.5042 72.0055C61.16 74.3497 57.9806 75.6666 54.6654 75.6666H29.6654C26.3502 75.6666 23.1707 74.3497 20.8265 72.0055C18.4823 69.6613 17.1654 66.4818 17.1654 63.1666ZM92.1654 34V79.8333C92.1588 85.3566 89.9617 90.6518 86.0561 94.5574C82.1506 98.463 76.8553 100.66 71.332 100.667H33.832C32.727 100.667 31.6672 100.228 30.8858 99.4463C30.1044 98.6648 29.6654 97.605 29.6654 96.5C29.6654 95.3949 30.1044 94.3351 30.8858 93.5537C31.6672 92.7723 32.727 92.3333 33.832 92.3333H71.332C74.6472 92.3333 77.8267 91.0163 80.1709 88.6721C82.5151 86.3279 83.832 83.1485 83.832 79.8333V34C83.832 32.8949 84.271 31.8351 85.0524 31.0537C85.8338 30.2723 86.8936 29.8333 87.9987 29.8333C89.1038 29.8333 90.1636 30.2723 90.945 31.0537C91.7264 31.8351 92.1654 32.8949 92.1654 34Z" fill="#F9F9F9"/>
</g>
<defs>
<clipPath id="clip0_1582_20304">
<rect width="100" height="100" fill="white" transform="translate(0.5 0.666626)"/>
</clipPath>
</defs>
</svg>
