<svg width="101" height="101" viewBox="0 0 101 101" fill="none" xmlns="http://www.w3.org/2000/svg">
<g clip-path="url(#clip0_1625_21642)">
<path d="M50.5 0.666626C40.611 0.666626 30.944 3.59907 22.7215 9.09315C14.4991 14.5872 8.09043 22.3962 4.30605 31.5325C0.521664 40.6688 -0.468503 50.7221 1.46076 60.4211C3.39002 70.1202 8.15206 79.0293 15.1447 86.022C22.1373 93.0146 31.0465 97.7766 40.7455 99.7059C50.4446 101.635 60.4979 100.645 69.6342 96.8606C78.7705 93.0762 86.5794 86.6676 92.0735 78.4451C97.5676 70.2227 100.5 60.5557 100.5 50.6666C100.486 37.4102 95.2132 24.7008 85.8395 15.3271C76.4658 5.95341 63.7564 0.680964 50.5 0.666626ZM50.5 92.3333C42.2591 92.3333 34.2033 89.8896 27.3513 85.3112C20.4992 80.7328 15.1587 74.2254 12.005 66.6118C8.85139 58.9982 8.02625 50.6204 9.63397 42.5379C11.2417 34.4553 15.2101 27.031 21.0372 21.2038C26.8644 15.3767 34.2887 11.4083 42.3713 9.80057C50.4538 8.19286 58.8316 9.01799 66.4452 12.1716C74.0588 15.3253 80.5662 20.6658 85.1446 27.5179C89.723 34.3699 92.1667 42.4257 92.1667 50.6666C92.1546 61.7136 87.7608 72.3046 79.9494 80.116C72.138 87.9274 61.547 92.3212 50.5 92.3333ZM29.6667 40.25C29.6667 39.0138 30.0332 37.8055 30.72 36.7776C31.4068 35.7498 32.3829 34.9488 33.5249 34.4757C34.667 34.0027 35.9236 33.8789 37.136 34.1201C38.3484 34.3612 39.462 34.9565 40.3361 35.8305C41.2102 36.7046 41.8054 37.8183 42.0466 39.0306C42.2878 40.243 42.164 41.4997 41.6909 42.6417C41.2179 43.7838 40.4168 44.7599 39.389 45.4466C38.3612 46.1334 37.1528 46.5 35.9167 46.5C34.2591 46.5 32.6694 45.8415 31.4973 44.6694C30.3252 43.4973 29.6667 41.9076 29.6667 40.25ZM58.8334 40.25C58.8334 39.0138 59.1999 37.8055 59.8867 36.7776C60.5734 35.7498 61.5495 34.9488 62.6916 34.4757C63.8336 34.0027 65.0903 33.8789 66.3027 34.1201C67.5151 34.3612 68.6287 34.9565 69.5028 35.8305C70.3768 36.7046 70.9721 37.8183 71.2133 39.0306C71.4544 40.243 71.3306 41.4997 70.8576 42.6417C70.3846 43.7838 69.5835 44.7599 68.5557 45.4466C67.5279 46.1334 66.3195 46.5 65.0834 46.5C63.4258 46.5 61.836 45.8415 60.6639 44.6694C59.4918 43.4973 58.8334 41.9076 58.8334 40.25ZM50.4709 63.1666C58.9671 62.9489 67.3914 61.5465 75.5 59C72.9375 68.5 64.4 79.8333 50.5 79.8333C36.6 79.8333 28.0334 68.5 25.4709 59C33.569 61.5482 41.984 62.9506 50.4709 63.1666Z" fill="#F9F9F9"/>
</g>
<defs>
<clipPath id="clip0_1625_21642">
<rect width="100" height="100" fill="white" transform="translate(0.5 0.666626)"/>
</clipPath>
</defs>
</svg>
