<svg width="101" height="101" viewBox="0 0 101 101" fill="none" xmlns="http://www.w3.org/2000/svg">
<g clip-path="url(#clip0_1191_18100)">
<path d="M46.3619 11.075L46.3327 75.4C46.3327 76.505 46.7717 77.5648 47.5531 78.3462C48.3345 79.1276 49.3943 79.5666 50.4994 79.5666C51.6044 79.5666 52.6642 79.1276 53.4457 78.3462C54.2271 77.5648 54.666 76.505 54.666 75.4L54.6952 11.1458L66.8285 23.2833C67.6099 24.0644 68.6695 24.5032 69.7744 24.5032C70.8792 24.5032 71.9388 24.0644 72.7202 23.2833C73.5013 22.5019 73.9401 21.4423 73.9401 20.3375C73.9401 19.2326 73.5013 18.173 72.7202 17.3916L59.341 3.99579C58.1802 2.8342 56.8019 1.91274 55.2848 1.28406C53.7677 0.655375 52.1416 0.331787 50.4994 0.331787C48.8572 0.331787 47.2311 0.655375 45.714 1.28406C44.1969 1.91274 42.8185 2.8342 41.6577 3.99579L28.2785 17.3791C27.4974 18.1605 27.0586 19.2201 27.0586 20.325C27.0586 21.4298 27.4974 22.4894 28.2785 23.2708C29.0599 24.0519 30.1195 24.4907 31.2244 24.4907C32.3292 24.4907 33.3888 24.0519 34.1702 23.2708L46.3619 11.075Z" fill="#F2EBE3"/>
<path d="M92.1667 71.1665V87.8332C92.1667 88.9383 91.7277 89.9981 90.9463 90.7795C90.1649 91.5609 89.1051 91.9999 88 91.9999H13C11.8949 91.9999 10.8351 91.5609 10.0537 90.7795C9.27232 89.9981 8.83333 88.9383 8.83333 87.8332V71.1665C8.83333 70.0615 8.39435 69.0017 7.61295 68.2203C6.83154 67.4389 5.77174 66.9999 4.66667 66.9999C3.5616 66.9999 2.50179 67.4389 1.72039 68.2203C0.938987 69.0017 0.5 70.0615 0.5 71.1665L0.5 87.8332C0.5 91.1484 1.81696 94.3278 4.16116 96.6721C6.50537 99.0163 9.68479 100.333 13 100.333H88C91.3152 100.333 94.4946 99.0163 96.8388 96.6721C99.183 94.3278 100.5 91.1484 100.5 87.8332V71.1665C100.5 70.0615 100.061 69.0017 99.2796 68.2203C98.4982 67.4389 97.4384 66.9999 96.3333 66.9999C95.2283 66.9999 94.1684 67.4389 93.387 68.2203C92.6056 69.0017 92.1667 70.0615 92.1667 71.1665Z" fill="#F2EBE3"/>
</g>
<defs>
<clipPath id="clip0_1191_18100">
<rect width="100" height="100" fill="white" transform="translate(0.5 0.333252)"/>
</clipPath>
</defs>
</svg>
