<svg width="101" height="101" viewBox="0 0 101 101" fill="none" xmlns="http://www.w3.org/2000/svg">
<g clip-path="url(#clip0_1791_40439)">
<path d="M64.1237 57.5L55.9154 67.3333L64.1237 77.1666C65.582 78.9166 65.3737 81.5416 63.582 83.0416C62.7904 83.7083 61.8737 84 60.9154 84C59.707 84 58.5404 83.5 57.707 82.5L50.4987 73.8333L43.2904 82.5C42.457 83.5 41.2904 84 40.082 84C39.1237 84 38.207 83.6666 37.4154 83.0416C35.6654 81.5833 35.4154 78.9583 36.8737 77.1666L45.082 67.3333L36.8737 57.5C35.4154 55.75 35.6237 53.125 37.4154 51.625C39.207 50.1666 41.7904 50.375 43.2904 52.1666L50.4987 60.8333L57.707 52.1666C59.1654 50.4166 61.7904 50.1666 63.582 51.625C65.332 53.0833 65.582 55.7083 64.1237 57.5ZM92.1654 44.375V79.8333C92.1654 91.3333 82.832 100.667 71.332 100.667H29.6654C18.1654 100.667 8.83203 91.3333 8.83203 79.8333V21.5C8.83203 9.99996 18.1654 0.666626 29.6654 0.666626H48.457C56.2487 0.666626 63.582 3.70829 69.082 9.20829L83.582 23.75C89.082 29.25 92.1237 36.5833 92.1237 44.375H92.1654ZM63.207 15.0833C61.8737 13.75 60.4154 12.625 58.832 11.7083V29.8333C58.832 32.125 60.707 34 62.9987 34H81.082C80.1654 32.4166 79.0404 30.9583 77.707 29.625L63.207 15.0833ZM83.832 44.3333C83.832 43.6666 83.832 42.9583 83.7487 42.2916H62.9987C56.1237 42.2916 50.4987 36.6666 50.4987 29.7916V9.08329C49.832 8.99996 49.1654 8.99996 48.457 8.99996H29.6654C22.7904 8.99996 17.1654 14.625 17.1654 21.5V79.8333C17.1654 86.7083 22.7904 92.3333 29.6654 92.3333H71.332C78.207 92.3333 83.832 86.7083 83.832 79.8333V44.375V44.3333Z" fill="#F9F9F9"/>
</g>
<defs>
<clipPath id="clip0_1791_40439">
<rect width="100" height="100" fill="white" transform="translate(0.5 0.666626)"/>
</clipPath>
</defs>
</svg>
