<svg width="101" height="101" viewBox="0 0 101 101" fill="none" xmlns="http://www.w3.org/2000/svg">
<g clip-path="url(#clip0_1191_14965)">
<path d="M58.8322 100.333C57.9307 100.333 57.0534 100.041 56.3322 99.4999L39.6655 86.9999C39.148 86.6118 38.728 86.1085 38.4388 85.53C38.1495 84.9514 37.9989 84.3134 37.9989 83.6666V60.2499L8.76553 27.3624C6.68936 25.0202 5.33377 22.1283 4.86169 19.0342C4.38961 15.9401 4.82113 12.7755 6.10437 9.92081C7.38762 7.06607 9.46799 4.64266 12.0954 2.94186C14.7229 1.24106 17.7856 0.335229 20.9155 0.333252L80.0822 0.333252C83.2118 0.336923 86.2738 1.24425 88.9002 2.9462C91.5266 4.64814 93.6056 7.0723 94.8875 9.92736C96.1694 12.7824 96.5995 15.9469 96.1263 19.0405C95.653 22.1342 94.2965 25.0253 92.2197 27.3666L62.9989 60.2499V96.1666C62.9989 97.2717 62.5599 98.3315 61.7785 99.1129C60.9971 99.8943 59.9373 100.333 58.8322 100.333ZM46.3322 81.5833L54.6655 87.8333V58.6666C54.6664 57.6464 55.0415 56.662 55.7197 55.8999L86.003 21.8291C87.0128 20.6878 87.6717 19.2792 87.9007 17.7726C88.1296 16.266 87.9189 14.7253 87.2937 13.3356C86.6686 11.9458 85.6556 10.766 84.3764 9.93779C83.0972 9.10958 81.6061 8.66819 80.0822 8.66658H20.9155C19.3924 8.66889 17.9023 9.11053 16.6239 9.93853C15.3455 10.7665 14.3331 11.9457 13.7081 13.3347C13.0831 14.7237 12.872 16.2635 13.1002 17.7694C13.3284 19.2753 13.9862 20.6835 14.9947 21.8249L45.2822 55.8999C45.9589 56.6626 46.3325 57.647 46.3322 58.6666V81.5833Z" fill="#F2EBE3"/>
</g>
<defs>
<clipPath id="clip0_1191_14965">
<rect width="100" height="100" fill="white" transform="translate(0.5 0.333252)"/>
</clipPath>
</defs>
</svg>
