<svg width="101" height="101" viewBox="0 0 101 101" fill="none" xmlns="http://www.w3.org/2000/svg">
<g clip-path="url(#clip0_1191_21134)">
<path d="M79.6667 0.333252H21.3333C15.81 0.339868 10.5148 2.53693 6.60925 6.4425C2.70367 10.3481 0.506616 15.6433 0.5 21.1666L0.5 79.4999C0.506616 85.0232 2.70367 90.3184 6.60925 94.224C10.5148 98.1296 15.81 100.327 21.3333 100.333H79.6667C85.19 100.327 90.4852 98.1296 94.3907 94.224C98.2963 90.3184 100.493 85.0232 100.5 79.4999V21.1666C100.493 15.6433 98.2963 10.3481 94.3907 6.4425C90.4852 2.53693 85.19 0.339868 79.6667 0.333252ZM21.3333 8.66658H79.6667C82.9819 8.66658 86.1613 9.98355 88.5055 12.3278C90.8497 14.672 92.1667 17.8514 92.1667 21.1666V79.4999C92.1595 81.3561 91.7321 83.1866 90.9167 84.8541L52.7375 46.6749C50.8029 44.7398 48.506 43.2047 45.978 42.1574C43.45 41.1101 40.7405 40.571 38.0042 40.571C35.2678 40.571 32.5583 41.1101 30.0303 42.1574C27.5024 43.2047 25.2055 44.7398 23.2708 46.6749L8.83333 61.1082V21.1666C8.83333 17.8514 10.1503 14.672 12.4945 12.3278C14.8387 9.98355 18.0181 8.66658 21.3333 8.66658ZM21.3333 91.9999C18.0181 91.9999 14.8387 90.683 12.4945 88.3388C10.1503 85.9945 8.83333 82.8151 8.83333 79.4999V72.8916L29.1583 52.5666C30.3192 51.405 31.6975 50.4835 33.2146 49.8549C34.7317 49.2262 36.3578 48.9026 38 48.9026C39.6422 48.9026 41.2683 49.2262 42.7854 49.8549C44.3025 50.4835 45.6808 51.405 46.8417 52.5666L85.0208 90.7499C83.3533 91.5654 81.5229 91.9927 79.6667 91.9999H21.3333Z" fill="#F2EBE3"/>
<path d="M67.1654 44.0833C70.0497 44.0833 72.8692 43.228 75.2674 41.6256C77.6657 40.0231 79.5348 37.7455 80.6386 35.0808C81.7424 32.416 82.0312 29.4838 81.4685 26.6549C80.9058 23.826 79.5169 21.2275 77.4773 19.188C75.4378 17.1485 72.8393 15.7595 70.0104 15.1968C67.1815 14.6341 64.2493 14.9229 61.5846 16.0267C58.9198 17.1305 56.6422 18.9997 55.0398 21.3979C53.4373 23.7961 52.582 26.6157 52.582 29.5C52.582 33.3677 54.1185 37.077 56.8534 39.8119C59.5883 42.5468 63.2976 44.0833 67.1654 44.0833ZM67.1654 23.25C68.4015 23.25 69.6099 23.6165 70.6377 24.3033C71.6655 24.99 72.4666 25.9662 72.9396 27.1082C73.4127 28.2502 73.5364 29.5069 73.2953 30.7193C73.0541 31.9317 72.4589 33.0453 71.5848 33.9194C70.7107 34.7935 69.5971 35.3887 68.3847 35.6299C67.1723 35.871 65.9156 35.7473 64.7736 35.2742C63.6316 34.8012 62.6554 34.0001 61.9687 32.9723C61.2819 31.9445 60.9154 30.7361 60.9154 29.5C60.9154 27.8424 61.5738 26.2527 62.7459 25.0805C63.918 23.9084 65.5078 23.25 67.1654 23.25Z" fill="#F2EBE3"/>
</g>
<defs>
<clipPath id="clip0_1191_21134">
<rect width="100" height="100" fill="white" transform="translate(0.5 0.333252)"/>
</clipPath>
</defs>
</svg>
