<svg width="101" height="101" viewBox="0 0 101 101" fill="none" xmlns="http://www.w3.org/2000/svg">
<g clip-path="url(#clip0_1624_38850)">
<path d="M96.3333 92.3333H21.3333C18.0181 92.3333 14.8387 91.0163 12.4945 88.6721C10.1503 86.3279 8.83333 83.1485 8.83333 79.8333V4.83329C8.83333 3.72822 8.39435 2.66842 7.61295 1.88701C6.83154 1.10561 5.77174 0.666626 4.66667 0.666626C3.5616 0.666626 2.50179 1.10561 1.72039 1.88701C0.938987 2.66842 0.5 3.72822 0.5 4.83329L0.5 79.8333C0.506616 85.3566 2.70367 90.6518 6.60925 94.5574C10.5148 98.463 15.81 100.66 21.3333 100.667H96.3333C97.4384 100.667 98.4982 100.228 99.2796 99.4462C100.061 98.6648 100.5 97.605 100.5 96.5C100.5 95.3949 100.061 94.3351 99.2796 93.5537C98.4982 92.7723 97.4384 92.3333 96.3333 92.3333Z" fill="#F9F9F9"/>
<path d="M25.4987 83.9999C26.6038 83.9999 27.6636 83.561 28.445 82.7796C29.2264 81.9981 29.6654 80.9383 29.6654 79.8333V50.6666C29.6654 49.5615 29.2264 48.5017 28.445 47.7203C27.6636 46.9389 26.6038 46.4999 25.4987 46.4999C24.3936 46.4999 23.3338 46.9389 22.5524 47.7203C21.771 48.5017 21.332 49.5615 21.332 50.6666V79.8333C21.332 80.9383 21.771 81.9981 22.5524 82.7796C23.3338 83.561 24.3936 83.9999 25.4987 83.9999Z" fill="#F9F9F9"/>
<path d="M42.168 42.3333V79.8333C42.168 80.9384 42.607 81.9982 43.3884 82.7796C44.1698 83.561 45.2296 84 46.3346 84C47.4397 84 48.4995 83.561 49.2809 82.7796C50.0623 81.9982 50.5013 80.9384 50.5013 79.8333V42.3333C50.5013 41.2282 50.0623 40.1684 49.2809 39.387C48.4995 38.6056 47.4397 38.1666 46.3346 38.1666C45.2296 38.1666 44.1698 38.6056 43.3884 39.387C42.607 40.1684 42.168 41.2282 42.168 42.3333Z" fill="#F9F9F9"/>
<path d="M63 54.8333V79.8333C63 80.9384 63.439 81.9982 64.2204 82.7796C65.0018 83.561 66.0616 84 67.1667 84C68.2717 84 69.3315 83.561 70.1129 82.7796C70.8944 81.9982 71.3333 80.9384 71.3333 79.8333V54.8333C71.3333 53.7282 70.8944 52.6684 70.1129 51.887C69.3315 51.1056 68.2717 50.6666 67.1667 50.6666C66.0616 50.6666 65.0018 51.1056 64.2204 51.887C63.439 52.6684 63 53.7282 63 54.8333Z" fill="#F9F9F9"/>
<path d="M83.832 38.1666V79.8333C83.832 80.9383 84.271 81.9981 85.0524 82.7796C85.8338 83.561 86.8936 83.9999 87.9987 83.9999C89.1038 83.9999 90.1636 83.561 90.945 82.7796C91.7264 81.9981 92.1654 80.9383 92.1654 79.8333V38.1666C92.1654 37.0615 91.7264 36.0017 90.945 35.2203C90.1636 34.4389 89.1038 33.9999 87.9987 33.9999C86.8936 33.9999 85.8338 34.4389 85.0524 35.2203C84.271 36.0017 83.832 37.0615 83.832 38.1666Z" fill="#F9F9F9"/>
<path d="M25.5017 38.1666C26.6067 38.1664 27.6663 37.7273 28.4475 36.9458L43.3892 22.0041C44.1834 21.2476 45.2382 20.8256 46.335 20.8256C47.4319 20.8256 48.4867 21.2476 49.2809 22.0041L58.3309 31.0541C60.675 33.3975 63.8538 34.714 67.1684 34.714C70.4829 34.714 73.6618 33.3975 76.0059 31.0541L99.2809 7.77913C100.04 6.99329 100.46 5.94078 100.45 4.8483C100.441 3.75581 100.003 2.71076 99.2301 1.93822C98.4576 1.16569 97.4125 0.727485 96.32 0.717992C95.2276 0.708499 94.175 1.12848 93.3892 1.88747L70.1142 25.1583C69.3329 25.9394 68.2732 26.3782 67.1684 26.3782C66.0635 26.3782 65.0039 25.9394 64.2225 25.1583L55.1726 16.1125C52.8285 13.7691 49.6496 12.4526 46.335 12.4526C43.0205 12.4526 39.8416 13.7691 37.4975 16.1125L22.5559 31.0541C21.9733 31.6368 21.5766 32.3792 21.416 33.1873C21.2553 33.9955 21.3378 34.8331 21.6531 35.5944C21.9684 36.3556 22.5023 37.0063 23.1873 37.4641C23.8723 37.922 24.6778 38.1665 25.5017 38.1666Z" fill="#F9F9F9"/>
</g>
<defs>
<clipPath id="clip0_1624_38850">
<rect width="100" height="100" fill="white" transform="translate(0.5 0.666626)"/>
</clipPath>
</defs>
</svg>
