<svg width="101" height="101" viewBox="0 0 101 101" fill="none" xmlns="http://www.w3.org/2000/svg">
<g clip-path="url(#clip0_1191_16246)">
<path d="M79.6667 16.9999H21.3333C9.82917 16.9999 0.5 26.3249 0.5 37.8332V62.8332C0.5 74.3374 9.82917 83.6665 21.3333 83.6665H79.6667C91.1542 83.6665 100.5 74.3207 100.5 62.8332V37.8332C100.5 26.3457 91.1542 16.9999 79.6667 16.9999ZM34.3333 66.9999C32.975 66.9999 31.7958 66.0624 31.4917 64.7374L30.3875 59.9165H20.35L19.2083 64.7541C18.8958 66.0707 17.725 66.9999 16.3708 66.9999C14.4917 66.9999 13.1042 65.2457 13.5333 63.4165L19.4208 38.4457C20.2583 34.8374 24.1583 32.5874 27.9875 34.1915C29.8167 34.9582 31.0458 36.7165 31.4958 38.6499L37.175 63.4332C37.5917 65.2582 36.2083 66.9999 34.3333 66.9999ZM92.1667 62.8332C92.1667 69.7249 86.5583 75.3332 79.6667 75.3332H50.5V25.3332H79.6667C86.5583 25.3332 92.1667 30.9415 92.1667 37.8332V62.8332ZM85.9167 40.3999V40.4874C85.9167 41.904 84.7667 43.054 83.35 43.054H82.0333C81.5292 48.3665 79.4625 54.4332 75.3375 59.1624C77.5958 60.5332 80.3042 61.5124 83.6042 61.8249C84.9167 61.9499 85.9167 63.0582 85.9167 64.3791V64.4665C85.9167 65.9916 84.6 67.1665 83.0833 67.0207C78.3458 66.5665 74.5042 64.9832 71.3833 62.7624C68.2458 65.004 64.3583 66.5749 59.5833 67.0207C58.0667 67.1624 56.7542 65.9874 56.7542 64.4624V64.3749C56.7542 63.0374 57.7875 61.9415 59.1208 61.8165C62.4042 61.504 65.1125 60.5374 67.3583 59.1707C65.9792 57.5915 64.8292 55.8624 63.8875 54.0582C63 52.3582 64.2583 50.3249 66.175 50.3249H66.2167C67.1583 50.3249 68.0375 50.8332 68.4708 51.6665C69.2417 53.1332 70.2042 54.5457 71.3583 55.8415C74.7667 52.0082 76.325 47.0582 76.7875 43.0457H59.325C57.9083 43.0457 56.7583 41.8957 56.7583 40.479V40.3915C56.7583 38.9749 57.9083 37.8249 59.325 37.8249H68.7292V36.2249C68.7292 34.8082 69.8792 33.6582 71.2958 33.6582H71.3833C72.8 33.6582 73.95 34.8082 73.95 36.2249V37.8249H83.3542C84.7708 37.8249 85.9208 38.9749 85.9208 40.3915L85.9167 40.3999ZM25.7708 39.7624L29.05 54.0832H21.7292L25.1083 39.7624C25.1458 39.6082 25.2792 39.4999 25.4375 39.4999C25.5958 39.4999 25.7375 39.6082 25.7708 39.7624Z" fill="#F2EBE3"/>
</g>
<defs>
<clipPath id="clip0_1191_16246">
<rect width="100" height="100" fill="white" transform="translate(0.5 0.333252)"/>
</clipPath>
</defs>
</svg>
