<svg width="101" height="101" viewBox="0 0 101 101" fill="none" xmlns="http://www.w3.org/2000/svg">
<g clip-path="url(#clip0_1553_21506)">
<path d="M63.0016 100.667C55.9995 100.661 49.0764 99.188 42.6789 96.3416C36.2815 93.4953 30.5519 89.3392 25.8599 84.1416C21.1326 78.938 17.5658 72.7885 15.3964 66.1013C13.2269 59.414 12.5044 52.3419 13.2766 45.3541C14.5216 34.4792 19.2658 24.303 26.7948 16.3576C34.3238 8.41231 44.2302 3.12788 55.0225 1.29993C61.9992 0.22233 69.119 0.512442 75.985 2.1541C77.7828 2.61601 79.4246 3.54995 80.7404 4.85927C82.0561 6.16859 82.9982 7.80573 83.4689 9.60128C83.9397 11.3968 83.9221 13.2856 83.418 15.072C82.9139 16.8585 81.9416 18.4778 80.6016 19.7624C61.6016 37.1208 63.2516 64.1124 83.9641 79.8041C85.4286 80.9536 86.5583 82.4745 87.2356 84.2086C87.9129 85.9427 88.1131 87.8267 87.8153 89.6645C87.5175 91.5022 86.7327 93.2265 85.5424 94.6581C84.3522 96.0896 82.8 97.1759 81.0474 97.8041C75.2216 99.7075 69.1305 100.674 63.0016 100.667ZM63.3183 8.99994C60.9789 8.99431 58.6426 9.17124 56.3308 9.5291C47.3455 11.0487 39.0969 15.446 32.8267 22.0588C26.5565 28.6717 22.604 37.1424 21.5641 46.1958C20.9141 52.0293 21.5131 57.9343 23.3214 63.5185C25.1296 69.1026 28.1056 74.238 32.0516 78.5833C37.828 84.7486 45.2695 89.1051 53.4732 91.1242C61.6769 93.1433 70.2902 92.7383 78.2683 89.9583C78.6122 89.8294 78.9159 89.612 79.1487 89.328C79.3815 89.0439 79.5351 88.7034 79.5939 88.3409C79.6527 87.9784 79.6146 87.6068 79.4835 87.2637C79.3524 86.9207 79.133 86.6184 78.8475 86.3874C54.1433 67.7291 52.1808 34.3624 74.8975 13.6833C75.1581 13.4412 75.3461 13.1313 75.4403 12.7883C75.5346 12.4453 75.5312 12.0828 75.4308 11.7416C75.3442 11.3795 75.1602 11.0479 74.8988 10.7828C74.6373 10.5176 74.3084 10.3291 73.9475 10.2374C70.4672 9.39796 66.8983 8.98244 63.3183 8.99994Z" fill="#F9F9F9"/>
</g>
<defs>
<clipPath id="clip0_1553_21506">
<rect width="100" height="100" fill="white" transform="translate(0.5 0.666626)"/>
</clipPath>
</defs>
</svg>
