<svg width="101" height="101" viewBox="0 0 101 101" fill="none" xmlns="http://www.w3.org/2000/svg">
<g clip-path="url(#clip0_1191_18322)">
<path d="M94.25 44.0833H56.75V6.58325C56.75 3.13149 53.9518 0.333252 50.5 0.333252C47.0482 0.333252 44.25 3.13149 44.25 6.58325V44.0833H6.75C3.29824 44.0833 0.5 46.8815 0.5 50.3333C0.5 53.785 3.29824 56.5833 6.75 56.5833H44.25V94.0833C44.25 97.535 47.0482 100.333 50.5 100.333C53.9518 100.333 56.75 97.535 56.75 94.0833V56.5833H94.25C97.7018 56.5833 100.5 53.785 100.5 50.3333C100.5 46.8815 97.7018 44.0833 94.25 44.0833Z" fill="#F2EBE3"/>
</g>
<defs>
<clipPath id="clip0_1191_18322">
<rect width="100" height="100" fill="white" transform="translate(0.5 0.333252)"/>
</clipPath>
</defs>
</svg>
