<svg width="101" height="101" viewBox="0 0 101 101" fill="none" xmlns="http://www.w3.org/2000/svg">
<g clip-path="url(#clip0_1191_14033)">
<path d="M45.52 0.626236C37.6294 1.6028 29.7778 4.96217 23.7818 9.9817C20.52 12.6965 16.9263 16.8372 14.6997 20.4505C11.7896 25.1965 9.6216 31.4856 8.89894 37.2864C8.58644 39.8059 8.64503 44.4739 8.9966 46.5247C10.5786 55.6458 16.3599 67.4231 26.9653 83.1653C31.2427 89.513 33.3716 92.3841 34.9732 93.9661C43.5669 102.462 57.5708 102.423 66.106 93.8684C67.6685 92.3255 70.1489 88.9466 74.4458 82.5598C84.6411 67.4036 90.4419 55.4895 92.0044 46.5247C92.6489 42.8528 92.2583 36.4075 91.145 32.052C88.3911 21.2512 81.3794 11.8567 71.8286 6.17311C64.0552 1.5442 54.5435 -0.467514 45.52 0.626236ZM57.4146 10.177C60.5982 10.9192 62.6489 11.6614 65.5591 13.1458C74.1138 17.5403 80.481 25.8411 82.5318 35.2551C84.231 43.0676 83.1372 48.5364 77.7466 59.3176C74.27 66.2903 69.1333 74.5911 62.7466 83.5364C60.2661 87.013 59.0552 88.2825 57.1997 89.3762C54.7974 90.7825 53.7232 91.0559 50.5005 91.0559C47.2778 91.0559 46.1841 90.7825 43.8599 89.3958C41.9458 88.263 40.6763 86.9153 37.9224 83.0481C31.8091 74.4934 26.6724 66.1536 23.2544 59.3176C18.6255 50.0598 17.2388 44.8059 17.8833 39.0051C18.7036 31.4856 21.7114 24.9426 26.7505 19.7083C31.5552 14.7278 36.9263 11.6809 43.4888 10.2161C46.5161 9.55202 46.5552 9.55202 51.0864 9.59108C54.6607 9.63014 55.3443 9.70827 57.4146 10.177Z" fill="#F2EBE3"/>
<path d="M47.9015 25.5286C41.3585 26.72 36.2609 31.2903 34.4445 37.5793C33.839 39.6497 33.7999 44.2786 34.3663 46.2317C35.2062 49.1028 36.4562 51.3098 38.4679 53.4387C40.0304 55.0598 41.3781 56.0559 43.3312 56.9934C45.8312 58.1848 47.6281 58.5754 50.4991 58.5754C53.546 58.5754 55.2843 58.1653 58.1163 56.7395C59.9327 55.8411 60.382 55.509 62.1202 53.7512C64.8156 51.0559 66.1241 48.6731 66.8273 45.2161C67.257 43.1067 67.1202 39.5129 66.5148 37.4426C65.5773 34.2004 63.2921 30.802 60.6945 28.8293C59.132 27.6379 56.339 26.2708 54.6007 25.8215C53.1163 25.4504 49.2491 25.2747 47.9015 25.5286ZM53.6827 34.2981C55.2257 34.9036 57.1398 36.7004 57.921 38.302C59.5421 41.5637 58.9171 45.2551 56.339 47.8528C51.5343 52.6575 43.4679 50.0208 42.296 43.2825C41.8663 40.8411 42.6866 38.2629 44.464 36.3684C45.6749 35.0793 46.4366 34.5911 47.921 34.1028C49.4445 33.595 52.1007 33.6926 53.6827 34.2981Z" fill="#F2EBE3"/>
</g>
<defs>
<clipPath id="clip0_1191_14033">
<rect width="100" height="100" fill="white" transform="translate(0.5 0.333252)"/>
</clipPath>
</defs>
</svg>
