<svg width="100" height="100" viewBox="0 0 100 100" fill="none" xmlns="http://www.w3.org/2000/svg">
<g clip-path="url(#clip0_1240_16847)">
<path d="M98.7776 92.8875L73.9318 68.0417C79.8151 60.8542 83.3568 51.6792 83.3568 41.6917C83.3568 18.7167 64.6651 0.0250244 41.6901 0.0250244C18.7151 0.0250244 0.0234375 18.7167 0.0234375 41.6917C0.0234375 64.6667 18.7151 83.3584 41.6901 83.3584C51.6818 83.3584 60.8568 79.8167 68.0401 73.9333L92.8859 98.7792C93.6984 99.5917 94.7651 100 95.8318 100C96.8984 100 97.9651 99.5917 98.7776 98.7792C100.407 97.15 100.407 94.5167 98.7776 92.8875ZM41.6901 75.025C23.3109 75.025 8.35677 60.0709 8.35677 41.6917C8.35677 23.3125 23.3109 8.35836 41.6901 8.35836C60.0693 8.35836 75.0234 23.3125 75.0234 41.6917C75.0234 60.0709 60.0693 75.025 41.6901 75.025ZM57.1109 32.1125L47.5568 41.6667L57.1109 51.2209C58.7401 52.85 58.7401 55.4834 57.1109 57.1125C56.2984 57.925 55.2318 58.3334 54.1651 58.3334C53.0984 58.3334 52.0318 57.925 51.2193 57.1125L41.6651 47.5584L32.1109 57.1125C31.2984 57.925 30.2318 58.3334 29.1651 58.3334C28.0984 58.3334 27.0318 57.925 26.2193 57.1125C24.5901 55.4834 24.5901 52.85 26.2193 51.2209L35.7734 41.6667L26.2193 32.1125C24.5901 30.4834 24.5901 27.85 26.2193 26.2209C27.8484 24.5917 30.4818 24.5917 32.1109 26.2209L41.6651 35.775L51.2193 26.2209C52.8484 24.5917 55.4818 24.5917 57.1109 26.2209C58.7401 27.85 58.7401 30.4834 57.1109 32.1125Z" fill="#F2EBE3"/>
</g>
<defs>
<clipPath id="clip0_1240_16847">
<rect width="100" height="100" fill="white"/>
</clipPath>
</defs>
</svg>
