<svg width="101" height="101" viewBox="0 0 101 101" fill="none" xmlns="http://www.w3.org/2000/svg">
<g clip-path="url(#clip0_1191_16150)">
<path d="M97.4615 39.5791C90.999 29.0541 76.299 11.3958 50.499 11.3958C24.699 11.3958 9.99899 29.0541 3.53649 39.5791C1.53869 42.8104 0.480469 46.5343 0.480469 50.3333C0.480469 54.1322 1.53869 57.8561 3.53649 61.0874C9.99899 71.6124 24.699 89.2707 50.499 89.2707C76.299 89.2707 90.999 71.6124 97.4615 61.0874C99.4593 57.8561 100.518 54.1322 100.518 50.3333C100.518 46.5343 99.4593 42.8104 97.4615 39.5791ZM90.3573 56.7249C84.8073 65.7499 72.2448 80.9374 50.499 80.9374C28.7532 80.9374 16.1907 65.7499 10.6407 56.7249C9.45372 54.8043 8.82504 52.5911 8.82504 50.3333C8.82504 48.0754 9.45372 45.8622 10.6407 43.9416C16.1907 34.9166 28.7532 19.7291 50.499 19.7291C72.2448 19.7291 84.8073 34.8999 90.3573 43.9416C91.5443 45.8622 92.1729 48.0754 92.1729 50.3333C92.1729 52.5911 91.5443 54.8043 90.3573 56.7249Z" fill="#F2EBE3"/>
<path d="M50.5013 29.4999C46.3809 29.4999 42.353 30.7217 38.9269 33.0109C35.5009 35.3001 32.8306 38.5538 31.2538 42.3606C29.677 46.1674 29.2644 50.3563 30.0683 54.3976C30.8721 58.4389 32.8563 62.151 35.7699 65.0646C38.6835 67.9782 42.3957 69.9624 46.4369 70.7662C50.4782 71.5701 54.6671 71.1575 58.4739 69.5807C62.2807 68.0039 65.5344 65.3336 67.8236 61.9076C70.1128 58.4816 71.3346 54.4537 71.3346 50.3332C71.328 44.8099 69.131 39.5147 65.2254 35.6091C61.3198 31.7036 56.0246 29.5065 50.5013 29.4999ZM50.5013 62.8332C48.029 62.8332 45.6123 62.1001 43.5567 60.7266C41.5011 59.3531 39.8989 57.4008 38.9528 55.1168C38.0067 52.8327 37.7592 50.3193 38.2415 47.8946C38.7238 45.4698 39.9143 43.2425 41.6625 41.4944C43.4106 39.7462 45.6379 38.5557 48.0627 38.0734C50.4874 37.5911 53.0008 37.8386 55.2849 38.7847C57.5689 39.7308 59.5212 41.333 60.8947 43.3886C62.2682 45.4442 63.0013 47.8609 63.0013 50.3332C63.0013 53.6484 61.6844 56.8278 59.3402 59.172C56.9959 61.5163 53.8165 62.8332 50.5013 62.8332Z" fill="#F2EBE3"/>
</g>
<defs>
<clipPath id="clip0_1191_16150">
<rect width="100" height="100" fill="white" transform="translate(0.5 0.333252)"/>
</clipPath>
</defs>
</svg>
