<svg width="100" height="100" viewBox="0 0 100 100" fill="none" xmlns="http://www.w3.org/2000/svg">
<g clip-path="url(#clip0_1191_18099)">
<path d="M66.6667 62.5C66.6667 64.8041 64.8042 66.6666 62.5 66.6666H37.5C35.1958 66.6666 33.3333 64.8041 33.3333 62.5C33.3333 60.1958 35.1958 58.3333 37.5 58.3333H62.5C64.8042 58.3333 66.6667 60.1958 66.6667 62.5ZM100 33.3333V75C100 86.4875 90.6542 95.8333 79.1667 95.8333H20.8333C9.34583 95.8333 0 86.4875 0 75V25C0 13.5125 9.34583 4.16663 20.8333 4.16663H31.3667C33.2958 4.16663 35.2292 4.62079 36.9542 5.48329L50.1042 12.0583C50.6792 12.3458 51.3208 12.4958 51.9625 12.4958H79.1625C90.65 12.4958 99.9958 21.8416 99.9958 33.3291L100 33.3333ZM8.33333 25V29.1666H90.95C89.2292 24.3166 84.6 20.8333 79.1667 20.8333H51.9667C50.0375 20.8333 48.1042 20.3791 46.3792 19.5166L33.2292 12.9416C32.6542 12.6541 32.0125 12.5041 31.3708 12.5041H20.8375C13.9458 12.5041 8.3375 18.1125 8.3375 25.0041L8.33333 25ZM91.6667 75V37.5H8.33333V75C8.33333 81.8916 13.9417 87.5 20.8333 87.5H79.1667C86.0583 87.5 91.6667 81.8916 91.6667 75Z" fill="#F2EBE3"/>
</g>
<defs>
<clipPath id="clip0_1191_18099">
<rect width="100" height="100" fill="white"/>
</clipPath>
</defs>
</svg>
