<svg width="101" height="101" viewBox="0 0 101 101" fill="none" xmlns="http://www.w3.org/2000/svg">
<g clip-path="url(#clip0_1191_14023)">
<path d="M87.9987 96.1666C87.9987 98.4707 86.132 100.333 83.832 100.333C81.532 100.333 79.6654 98.4707 79.6654 96.1666C79.6654 86.9749 72.1904 79.4999 62.9987 79.4999H37.9987C28.807 79.4999 21.332 86.9749 21.332 96.1666C21.332 98.4707 19.4654 100.333 17.1654 100.333C14.8654 100.333 12.9987 98.4707 12.9987 96.1666C12.9987 82.3791 24.2112 71.1666 37.9987 71.1666H62.9987C76.7862 71.1666 87.9987 82.3791 87.9987 96.1666ZM92.1654 31.5833V39.9166C92.1654 43.3624 89.3612 46.1666 85.9154 46.1666H83.832C83.832 55.3582 76.357 62.8332 67.1654 62.8332H33.832C24.6404 62.8332 17.1654 55.3582 17.1654 46.1666H15.082C11.6362 46.1666 8.83203 43.3624 8.83203 39.9166V31.5833C8.83203 28.1374 11.6362 25.3333 15.082 25.3333H17.1654C17.1654 16.1416 24.6404 8.66658 33.832 8.66658H46.332V4.49992C46.332 2.19575 48.1987 0.333252 50.4987 0.333252C52.7987 0.333252 54.6654 2.19575 54.6654 4.49992V8.66658H67.1654C76.357 8.66658 83.832 16.1416 83.832 25.3333H85.9154C89.3612 25.3333 92.1654 28.1374 92.1654 31.5833ZM75.4987 25.3333C75.4987 20.7374 71.7612 16.9999 67.1654 16.9999H33.832C29.2362 16.9999 25.4987 20.7374 25.4987 25.3333V46.1666C25.4987 50.7624 29.2362 54.4999 33.832 54.4999H67.1654C71.7612 54.4999 75.4987 50.7624 75.4987 46.1666V25.3333ZM40.082 29.4999C36.632 29.4999 33.832 32.2999 33.832 35.7499C33.832 39.1999 36.632 41.9999 40.082 41.9999C43.532 41.9999 46.332 39.1999 46.332 35.7499C46.332 32.2999 43.532 29.4999 40.082 29.4999ZM60.9154 29.4999C57.4654 29.4999 54.6654 32.2999 54.6654 35.7499C54.6654 39.1999 57.4654 41.9999 60.9154 41.9999C64.3654 41.9999 67.1654 39.1999 67.1654 35.7499C67.1654 32.2999 64.3654 29.4999 60.9154 29.4999Z" fill="#F2EBE3"/>
</g>
<defs>
<clipPath id="clip0_1191_14023">
<rect width="100" height="100" fill="white" transform="translate(0.5 0.333252)"/>
</clipPath>
</defs>
</svg>
