<svg width="101" height="101" viewBox="0 0 101 101" fill="none" xmlns="http://www.w3.org/2000/svg">
<g clip-path="url(#clip0_1191_16245)">
<path d="M94.4456 57.2582L86.529 28.7749C84.2085 20.4304 79.1654 13.1011 72.2012 7.95185C65.2371 2.80261 56.7515 0.129 48.0934 0.356001C39.4353 0.583001 31.1015 3.69758 24.4167 9.20467C17.732 14.7118 13.0798 22.2953 11.1998 30.7499L5.07064 58.3124C4.39362 61.358 4.40928 64.5167 5.11645 67.5554C5.82362 70.5941 7.20425 73.4352 9.1564 75.8689C11.1086 78.3026 13.5824 80.2667 16.3953 81.6164C19.2082 82.966 22.2882 83.6666 25.4081 83.6666H30.0498C31.0061 88.3761 33.5612 92.6102 37.2821 95.6515C41.003 98.6927 45.6608 100.354 50.4665 100.354C55.2721 100.354 59.93 98.6927 63.6509 95.6515C67.3718 92.6102 69.9268 88.3761 70.8831 83.6666H74.3748C77.5865 83.6668 80.7548 82.9244 83.6321 81.4975C86.5095 80.0706 89.0179 77.9978 90.9616 75.441C92.9052 72.8842 94.2314 69.9126 94.8365 66.7584C95.4416 63.6042 95.3051 60.3528 94.4456 57.2582ZM50.4665 91.9999C47.8904 91.9892 45.3805 91.1829 43.2802 89.6912C41.1799 88.1995 39.5918 86.0953 38.7331 83.6666H62.1998C61.3411 86.0953 59.753 88.1995 57.6527 89.6912C55.5524 91.1829 53.0426 91.9892 50.4665 91.9999ZM84.3248 70.3957C83.1637 71.936 81.6595 73.1843 79.9315 74.0414C78.2035 74.8985 76.2995 75.3408 74.3706 75.3332H25.4081C23.5364 75.3329 21.6886 74.9122 20.0012 74.1023C18.3138 73.2924 16.8298 72.1138 15.6588 70.6536C14.4878 69.1935 13.6596 67.489 13.2355 65.6659C12.8113 63.8429 12.802 61.9479 13.2081 60.1207L19.3331 32.5541C20.8096 25.9133 24.4636 19.9566 29.7142 15.6309C34.9648 11.3053 41.5107 8.85894 48.3114 8.68078C55.112 8.50262 61.777 10.6029 67.2469 14.6477C72.7168 18.6925 76.6777 24.4497 78.4998 31.0041L86.4165 59.4874C86.9396 61.3431 87.0229 63.2952 86.6598 65.1888C86.2967 67.0823 85.4972 68.8651 84.3248 70.3957Z" fill="#F2EBE3"/>
</g>
<defs>
<clipPath id="clip0_1191_16245">
<rect width="100" height="100" fill="white" transform="translate(0.464844 0.333252)"/>
</clipPath>
</defs>
</svg>
