<svg width="101" height="101" viewBox="0 0 101 101" fill="none" xmlns="http://www.w3.org/2000/svg">
<g clip-path="url(#clip0_1191_14011)">
<path d="M79.6654 35.4333V29.4999C79.6654 21.7644 76.5925 14.3458 71.1227 8.87597C65.6528 3.40616 58.2342 0.333252 50.4987 0.333252C42.7632 0.333252 35.3446 3.40616 29.8748 8.87597C24.4049 14.3458 21.332 21.7644 21.332 29.4999V35.4333C17.621 37.0529 14.4624 39.7188 12.2424 43.105C10.0225 46.4912 8.83736 50.4509 8.83203 54.4999V79.4999C8.83865 85.0232 11.0357 90.3184 14.9413 94.224C18.8469 98.1296 24.1421 100.327 29.6654 100.333H71.332C76.8553 100.327 82.1506 98.1296 86.0561 94.224C89.9617 90.3184 92.1588 85.0232 92.1654 79.4999V54.4999C92.16 50.4509 90.9749 46.4912 88.755 43.105C86.535 39.7188 83.3764 37.0529 79.6654 35.4333ZM29.6654 29.4999C29.6654 23.9746 31.8603 18.6755 35.7673 14.7685C39.6743 10.8615 44.9734 8.66658 50.4987 8.66658C56.024 8.66658 61.3231 10.8615 65.2301 14.7685C69.1371 18.6755 71.332 23.9746 71.332 29.4999V33.6666H29.6654V29.4999ZM83.832 79.4999C83.832 82.8151 82.5151 85.9945 80.1709 88.3388C77.8267 90.683 74.6472 91.9999 71.332 91.9999H29.6654C26.3502 91.9999 23.1707 90.683 20.8265 88.3388C18.4823 85.9945 17.1654 82.8151 17.1654 79.4999V54.4999C17.1654 51.1847 18.4823 48.0053 20.8265 45.6611C23.1707 43.3169 26.3502 41.9999 29.6654 41.9999H71.332C74.6472 41.9999 77.8267 43.3169 80.1709 45.6611C82.5151 48.0053 83.832 51.1847 83.832 54.4999V79.4999Z" fill="#F2EBE3"/>
<path d="M50.4987 58.6666C49.3936 58.6666 48.3338 59.1056 47.5524 59.887C46.771 60.6684 46.332 61.7282 46.332 62.8333V71.1666C46.332 72.2717 46.771 73.3315 47.5524 74.1129C48.3338 74.8943 49.3936 75.3333 50.4987 75.3333C51.6038 75.3333 52.6636 74.8943 53.445 74.1129C54.2264 73.3315 54.6654 72.2717 54.6654 71.1666V62.8333C54.6654 61.7282 54.2264 60.6684 53.445 59.887C52.6636 59.1056 51.6038 58.6666 50.4987 58.6666Z" fill="#F2EBE3"/>
</g>
<defs>
<clipPath id="clip0_1191_14011">
<rect width="100" height="100" fill="white" transform="translate(0.5 0.333252)"/>
</clipPath>
</defs>
</svg>
