<svg width="101" height="101" viewBox="0 0 101 101" fill="none" xmlns="http://www.w3.org/2000/svg">
<g clip-path="url(#clip0_1191_16151)">
<path d="M50.5352 66.9999C47.2388 66.9999 44.0165 66.0224 41.2757 64.1911C38.5348 62.3597 36.3986 59.7568 35.1372 56.7113C33.8757 53.6659 33.5456 50.3148 34.1887 47.0818C34.8318 43.8487 36.4192 40.879 38.75 38.5481C41.0809 36.2173 44.0506 34.6299 47.2836 33.9868C50.5167 33.3438 53.8678 33.6738 56.9132 34.9353C59.9586 36.1967 62.5616 38.3329 64.393 41.0738C66.2243 43.8146 67.2018 47.0369 67.2018 50.3333C67.2018 54.7535 65.4459 58.9928 62.3203 62.1184C59.1947 65.244 54.9554 66.9999 50.5352 66.9999ZM50.5352 41.9999C48.887 41.9999 47.2758 42.4887 45.9054 43.4044C44.535 44.32 43.4669 45.6215 42.8362 47.1442C42.2054 48.667 42.0404 50.3425 42.3619 51.959C42.6835 53.5755 43.4772 55.0604 44.6426 56.2258C45.808 57.3913 47.2929 58.1849 48.9094 58.5065C50.5259 58.828 52.2015 58.663 53.7242 58.0323C55.2469 57.4015 56.5484 56.3334 57.4641 54.963C58.3797 53.5926 58.8685 51.9814 58.8685 50.3333C58.8685 48.1231 57.9905 46.0035 56.4277 44.4407C54.8649 42.8779 52.7453 41.9999 50.5352 41.9999ZM75.5352 96.1666C75.5352 89.5362 72.9012 83.1773 68.2128 78.4889C63.5244 73.8005 57.1656 71.1666 50.5352 71.1666C43.9047 71.1666 37.5459 73.8005 32.8575 78.4889C28.1691 83.1773 25.5352 89.5362 25.5352 96.1666C25.5352 97.2717 25.9741 98.3315 26.7555 99.1129C27.5369 99.8943 28.5968 100.333 29.7018 100.333C30.8069 100.333 31.8667 99.8943 32.6481 99.1129C33.4295 98.3315 33.8685 97.2717 33.8685 96.1666C33.8685 91.7463 35.6244 87.5071 38.75 84.3815C41.8756 81.2559 46.1149 79.4999 50.5352 79.4999C54.9554 79.4999 59.1947 81.2559 62.3203 84.3815C65.4459 87.5071 67.2018 91.7463 67.2018 96.1666C67.2018 97.2717 67.6408 98.3315 68.4222 99.1129C69.2036 99.8943 70.2634 100.333 71.3685 100.333C72.4736 100.333 73.5334 99.8943 74.3148 99.1129C75.0962 98.3315 75.5352 97.2717 75.5352 96.1666ZM75.5352 33.6666C72.2388 33.6666 69.0165 32.6891 66.2757 30.8578C63.5348 29.0264 61.3986 26.4234 60.1372 23.378C58.8757 20.3326 58.5456 16.9814 59.1887 13.7484C59.8318 10.5154 61.4192 7.54569 63.75 5.21481C66.0809 2.88394 69.0506 1.29659 72.2836 0.653505C75.5167 0.0104177 78.8678 0.340473 81.9132 1.60193C84.9586 2.86339 87.5616 4.9996 89.393 7.74042C91.2243 10.4812 92.2018 13.7036 92.2018 16.9999C92.2018 21.4202 90.4459 25.6594 87.3203 28.785C84.1947 31.9106 79.9554 33.6666 75.5352 33.6666ZM75.5352 8.66659C73.887 8.66659 72.2758 9.15534 70.9054 10.071C69.535 10.9867 68.4669 12.2882 67.8362 13.8109C67.2054 15.3336 67.0404 17.0092 67.3619 18.6257C67.6835 20.2422 68.4772 21.727 69.6426 22.8925C70.808 24.0579 72.2929 24.8516 73.9094 25.1731C75.5259 25.4947 77.2015 25.3297 78.7242 24.6989C80.2469 24.0682 81.5484 23.0001 82.4641 21.6297C83.3797 20.2593 83.8685 18.6481 83.8685 16.9999C83.8685 14.7898 82.9905 12.6702 81.4277 11.1074C79.8649 9.54457 77.7453 8.66659 75.5352 8.66659ZM100.535 62.8333C100.529 56.2049 97.8925 49.8499 93.2055 45.1629C88.5185 40.4759 82.1635 37.8399 75.5352 37.8333C74.4301 37.8333 73.3703 38.2723 72.5889 39.0537C71.8075 39.8351 71.3685 40.8949 71.3685 41.9999C71.3685 43.105 71.8075 44.1648 72.5889 44.9462C73.3703 45.7276 74.4301 46.1666 75.5352 46.1666C79.9554 46.1666 84.1947 47.9225 87.3203 51.0481C90.4459 54.1738 92.2018 58.413 92.2018 62.8333C92.2018 63.9383 92.6408 64.9981 93.4222 65.7795C94.2036 66.5609 95.2634 66.9999 96.3685 66.9999C97.4736 66.9999 98.5334 66.5609 99.3148 65.7795C100.096 64.9981 100.535 63.9383 100.535 62.8333ZM25.5352 33.6666C22.2388 33.6666 19.0165 32.6891 16.2757 30.8578C13.5348 29.0264 11.3986 26.4234 10.1372 23.378C8.8757 20.3326 8.54565 16.9814 9.18874 13.7484C9.83182 10.5154 11.4192 7.54569 13.75 5.21481C16.0809 2.88394 19.0506 1.29659 22.2837 0.653505C25.5167 0.0104177 28.8678 0.340473 31.9132 1.60193C34.9586 2.86339 37.5616 4.9996 39.393 7.74042C41.2243 10.4812 42.2018 13.7036 42.2018 16.9999C42.2018 21.4202 40.4459 25.6594 37.3203 28.785C34.1947 31.9106 29.9554 33.6666 25.5352 33.6666ZM25.5352 8.66659C23.887 8.66659 22.2758 9.15534 20.9054 10.071C19.535 10.9867 18.4669 12.2882 17.8362 13.8109C17.2054 15.3336 17.0404 17.0092 17.3619 18.6257C17.6835 20.2422 18.4772 21.727 19.6426 22.8925C20.808 24.0579 22.2929 24.8516 23.9094 25.1731C25.5259 25.4947 27.2015 25.3297 28.7242 24.6989C30.2469 24.0682 31.5484 23.0001 32.4641 21.6297C33.3797 20.2593 33.8685 18.6481 33.8685 16.9999C33.8685 14.7898 32.9905 12.6702 31.4277 11.1074C29.8649 9.54457 27.7453 8.66659 25.5352 8.66659ZM8.86849 62.8333C8.86849 58.413 10.6244 54.1738 13.75 51.0481C16.8756 47.9225 21.1149 46.1666 25.5352 46.1666C26.6402 46.1666 27.7 45.7276 28.4814 44.9462C29.2628 44.1648 29.7018 43.105 29.7018 41.9999C29.7018 40.8949 29.2628 39.8351 28.4814 39.0537C27.7 38.2723 26.6402 37.8333 25.5352 37.8333C18.9068 37.8399 12.5518 40.4759 7.8648 45.1629C3.17782 49.8499 0.541775 56.2049 0.535156 62.8333C0.535156 63.9383 0.974143 64.9981 1.75554 65.7795C2.53695 66.5609 3.59675 66.9999 4.70182 66.9999C5.80689 66.9999 6.8667 66.5609 7.6481 65.7795C8.4295 64.9981 8.86849 63.9383 8.86849 62.8333Z" fill="#F2EBE3"/>
</g>
<defs>
<clipPath id="clip0_1191_16151">
<rect width="100" height="100" fill="white" transform="translate(0.535156 0.333252)"/>
</clipPath>
</defs>
</svg>
