<svg width="101" height="101" viewBox="0 0 101 101" fill="none" xmlns="http://www.w3.org/2000/svg">
<g clip-path="url(#clip0_1191_14016)">
<path d="M55.8838 50.3333L91.2255 7.13748C92.6838 5.35831 92.4172 2.73331 90.6338 1.27497C88.8505 -0.175025 86.2297 0.0791415 84.7713 1.86664L50.5005 43.7541L16.2255 1.86247C14.763 0.0749749 12.1422 -0.179192 10.363 1.27081C8.57967 2.73331 8.31716 5.35414 9.77133 7.13331L45.1172 50.3333L9.7755 93.5291C8.31717 95.3083 8.58383 97.9333 10.3672 99.3916C12.138 100.842 14.7672 100.592 16.2297 98.8L50.5005 56.9125L84.7755 98.8C86.238 100.592 88.8672 100.837 90.638 99.3916C92.4213 97.9291 92.6838 95.3083 91.2297 93.5291L55.8838 50.3333Z" fill="#F2EBE3"/>
</g>
<defs>
<clipPath id="clip0_1191_14016">
<rect width="100" height="100" fill="white" transform="translate(0.5 0.333252)"/>
</clipPath>
</defs>
</svg>
