<svg width="101" height="101" viewBox="0 0 101 101" fill="none" xmlns="http://www.w3.org/2000/svg">
<g clip-path="url(#clip0_4061_44670)">
<path d="M79.6667 12.8332H52.4667C51.825 12.8332 51.175 12.6832 50.6042 12.3957L37.4542 5.8207C35.725 4.9582 33.7958 4.50403 31.8667 4.50403H21.3333C9.84583 4.49986 0.5 13.8457 0.5 25.3332V75.3332C0.5 86.8207 9.84583 96.1665 21.3333 96.1665H25.5C27.8 96.1665 29.6667 94.304 29.6667 91.9999C29.6667 89.6957 27.8 87.8332 25.5 87.8332H21.3333C14.4417 87.8332 8.83333 82.2249 8.83333 75.3332V37.8332H92.1667V75.3332C92.1667 82.2249 86.5583 87.8332 79.6667 87.8332H75.5C73.1958 87.8332 71.3333 89.6957 71.3333 91.9999C71.3333 94.304 73.1958 96.1665 75.5 96.1665H79.6667C91.1542 96.1665 100.5 86.8207 100.5 75.3332V33.6665C100.5 22.179 91.1542 12.8332 79.6667 12.8332ZM8.83333 25.3332C8.83333 18.4415 14.4417 12.8332 21.3333 12.8332H31.8667C32.5083 12.8332 33.1583 12.9832 33.7292 13.2707L46.8792 19.8457C48.6083 20.7082 50.5375 21.1624 52.4667 21.1624H79.6667C85.0917 21.1624 89.675 24.6582 91.4 29.4957H8.83333V25.3332ZM65.9458 79.9374C67.575 81.5665 67.575 84.1999 65.9458 85.829L59.225 92.5499C56.8208 94.954 53.6625 96.154 50.5 96.154C47.3375 96.154 44.1833 94.954 41.7792 92.5499L35.0542 85.829C33.425 84.1999 33.425 81.5665 35.0542 79.9374C36.6833 78.3082 39.3167 78.3082 40.9458 79.9374L46.3333 85.3249V54.4999C46.3333 52.1957 48.2 50.3332 50.5 50.3332C52.8 50.3332 54.6667 52.1957 54.6667 54.4999V85.3249L60.0542 79.9374C61.6833 78.3082 64.3167 78.3082 65.9458 79.9374Z" fill="#F2EBE3"/>
</g>
<defs>
<clipPath id="clip0_4061_44670">
<rect width="100" height="100" fill="white" transform="translate(0.5 0.333252)"/>
</clipPath>
</defs>
</svg>
