<svg width="101" height="101" viewBox="0 0 101 101" fill="none" xmlns="http://www.w3.org/2000/svg">
<g clip-path="url(#clip0_4062_44675)">
<path d="M79.6667 13.1666H52.4667C51.825 13.1666 51.175 13.0166 50.6042 12.7291L37.4667 6.16246C35.7375 5.2958 33.8042 4.83746 31.8667 4.83746H21.3333C9.84583 4.8333 0.5 14.1791 0.5 25.6666V75.6666C0.5 87.1541 9.84583 96.5 21.3333 96.5H33.8333C36.1333 96.5 38 94.6375 38 92.3333C38 90.0291 36.1333 88.1666 33.8333 88.1666H21.3333C14.4417 88.1666 8.83333 82.5583 8.83333 75.6666V38.1666H92.1667V75.6666C92.1667 82.5583 86.5583 88.1666 79.6667 88.1666H67.1667C64.8667 88.1666 63 90.0291 63 92.3333C63 94.6375 64.8667 96.5 67.1667 96.5H79.6667C91.1542 96.5 100.5 87.1541 100.5 75.6666V34C100.5 22.5125 91.1542 13.1666 79.6667 13.1666ZM8.83333 25.6666C8.83333 18.775 14.4417 13.1666 21.3333 13.1666H31.8667C32.5083 13.1666 33.15 13.3166 33.7292 13.6083L46.8792 20.1791C48.6083 21.0416 50.5375 21.4958 52.4667 21.4958H79.6667C85.0917 21.4958 89.675 24.9916 91.4 29.8291H8.83333V25.6666ZM60.0542 66.9L54.6667 61.5125V92.3333C54.6667 94.6375 52.8 96.5 50.5 96.5C48.2 96.5 46.3333 94.6375 46.3333 92.3333V61.5125L40.9458 66.9C40.1333 67.7125 39.0667 68.1208 38 68.1208C36.9333 68.1208 35.8667 67.7125 35.0542 66.9C33.425 65.2708 33.425 62.6375 35.0542 61.0083L41.775 54.2875C46.4333 49.625 54.5625 49.625 59.225 54.2875L65.9458 61.0083C67.575 62.6375 67.575 65.2708 65.9458 66.9C64.3167 68.5291 61.6833 68.5291 60.0542 66.9Z" fill="#F2EBE3"/>
</g>
<defs>
<clipPath id="clip0_4062_44675">
<rect width="100" height="100" fill="white" transform="translate(0.5 0.666626)"/>
</clipPath>
</defs>
</svg>
