<svg width="101" height="101" viewBox="0 0 101 101" fill="none" xmlns="http://www.w3.org/2000/svg">
<g clip-path="url(#clip0_1191_14004)">
<path d="M88 8.66663H13C6.10833 8.66663 0.5 14.275 0.5 21.1666V92H8.83333V79.5H92.1667V92H100.5V21.1666C100.5 14.275 94.8917 8.66663 88 8.66663ZM13 17H88C90.3 17 92.1667 18.8708 92.1667 21.1666V54.5H83.8333V50.3333C83.8333 43.4416 78.225 37.8333 71.3333 37.8333H58.8333C55.6333 37.8333 52.7125 39.0416 50.5 41.025C48.2875 39.0416 45.3667 37.8333 42.1667 37.8333H29.6667C22.775 37.8333 17.1667 43.4416 17.1667 50.3333V54.5H8.83333V21.1666C8.83333 18.8708 10.7042 17 13 17ZM46.3333 54.5H25.5V50.3333C25.5 48.0375 27.3708 46.1666 29.6667 46.1666H42.1667C44.4625 46.1666 46.3333 48.0375 46.3333 50.3333V54.5ZM54.6667 50.3333C54.6667 48.0375 56.5333 46.1666 58.8333 46.1666H71.3333C73.6333 46.1666 75.5 48.0375 75.5 50.3333V54.5H54.6667V50.3333ZM8.83333 71.1666V62.8333H92.1667V71.1666H8.83333Z" fill="#F2EBE3"/>
</g>
<defs>
<clipPath id="clip0_1191_14004">
<rect width="100" height="100" fill="white" transform="translate(0.5 0.333252)"/>
</clipPath>
</defs>
</svg>
