<svg width="101" height="101" viewBox="0 0 101 101" fill="none" xmlns="http://www.w3.org/2000/svg">
<g clip-path="url(#clip0_1191_14003)">
<path d="M54.6679 4.49986C54.6679 3.39479 55.1069 2.33498 55.8883 1.55358C56.6697 0.772179 57.7295 0.333192 58.8346 0.333192C69.8815 0.345324 80.4726 4.73909 88.284 12.5505C96.0954 20.3619 100.489 30.9529 100.501 41.9999C100.501 43.1049 100.062 44.1647 99.2809 44.9461C98.4995 45.7275 97.4397 46.1665 96.3346 46.1665C95.2295 46.1665 94.1697 45.7275 93.3883 44.9461C92.6069 44.1647 92.1679 43.1049 92.1679 41.9999C92.158 33.1624 88.6429 24.6897 82.3938 18.4406C76.1448 12.1915 67.6721 8.67645 58.8346 8.66652C57.7295 8.66652 56.6697 8.22754 55.8883 7.44614C55.1069 6.66474 54.6679 5.60493 54.6679 4.49986ZM58.8346 25.3332C63.2549 25.3332 67.4941 27.0891 70.6197 30.2147C73.7453 33.3404 75.5012 37.5796 75.5012 41.9999C75.5012 43.1049 75.9402 44.1647 76.7216 44.9461C77.503 45.7275 78.5628 46.1665 79.6679 46.1665C80.773 46.1665 81.8328 45.7275 82.6142 44.9461C83.3956 44.1647 83.8346 43.1049 83.8346 41.9999C83.828 35.3715 81.1919 29.0165 76.5049 24.3295C71.818 19.6425 65.463 17.0065 58.8346 16.9999C57.7295 16.9999 56.6697 17.4388 55.8883 18.2202C55.1069 19.0016 54.6679 20.0615 54.6679 21.1665C54.6679 22.2716 55.1069 23.3314 55.8883 24.1128C56.6697 24.8942 57.7295 25.3332 58.8346 25.3332ZM96.7221 70.079C99.1367 72.5003 100.493 75.7803 100.493 79.1999C100.493 82.6194 99.1367 85.8994 96.7221 88.3207L92.9304 92.6915C58.8054 125.362 -24.2363 42.3415 7.93041 8.10819L12.7221 3.94153C15.1461 1.59435 18.3968 0.295897 21.7708 0.327087C25.1449 0.358278 28.371 1.7166 30.7512 4.10819C30.8804 4.23736 38.6012 14.2665 38.6012 14.2665C40.8922 16.6733 42.1675 19.8704 42.1621 23.1932C42.1567 26.516 40.8709 29.7089 38.5721 32.1082L33.7471 38.1749C36.4173 44.6628 40.3432 50.5592 45.2992 55.5253C50.2552 60.4913 56.1437 64.4291 62.6262 67.1124L68.7304 62.2582C71.13 59.9612 74.3223 58.6769 77.6441 58.6723C80.966 58.6676 84.1619 59.9429 86.5679 62.2332C86.5679 62.2332 96.5929 69.9499 96.7221 70.079ZM90.9887 76.1374C90.9887 76.1374 81.0179 68.4665 80.8887 68.3373C80.0303 67.4862 78.8705 67.0087 77.6617 67.0087C76.4528 67.0087 75.293 67.4862 74.4346 68.3373C74.3221 68.454 65.9179 75.1498 65.9179 75.1498C65.3516 75.6006 64.6776 75.8961 63.9623 76.0072C63.247 76.1182 62.5151 76.041 61.8387 75.7832C53.4407 72.6564 45.8126 67.7613 39.4714 61.4294C33.1301 55.0974 28.2238 47.4767 25.0846 39.0832C24.8062 38.3976 24.7155 37.6502 24.8217 36.9179C24.9279 36.1856 25.2271 35.4948 25.6887 34.9165C25.6887 34.9165 32.3846 26.5082 32.4971 26.3999C33.3482 25.5415 33.8257 24.3816 33.8257 23.1728C33.8257 21.964 33.3482 20.8041 32.4971 19.9457C32.3679 19.8207 24.6971 9.84153 24.6971 9.84153C23.8258 9.0603 22.6888 8.64192 21.5189 8.67214C20.3491 8.70235 19.2352 9.17887 18.4054 10.004L13.6137 14.1707C-9.89459 42.4374 62.0679 110.408 86.8387 86.9998L90.6346 82.6249C91.5241 81.8009 92.0583 80.6634 92.1244 79.4528C92.1905 78.2421 91.7833 77.0532 90.9887 76.1374Z" fill="#F2EBE3"/>
</g>
<defs>
<clipPath id="clip0_1191_14003">
<rect width="100" height="100" fill="white" transform="translate(0.5 0.333252)"/>
</clipPath>
</defs>
</svg>
