<svg width="101" height="101" viewBox="0 0 101 101" fill="none" xmlns="http://www.w3.org/2000/svg">
<g clip-path="url(#clip0_1191_14018)">
<path d="M38.0352 50.3333C51.8227 50.3333 63.0352 39.1208 63.0352 25.3333C63.0352 11.5458 51.8227 0.333252 38.0352 0.333252C24.2477 0.333252 13.0352 11.5458 13.0352 25.3333C13.0352 39.1208 24.2477 50.3333 38.0352 50.3333ZM38.0352 8.66659C47.2268 8.66659 54.7018 16.1416 54.7018 25.3333C54.7018 34.5249 47.2268 41.9999 38.0352 41.9999C28.8435 41.9999 21.3685 34.5249 21.3685 25.3333C21.3685 16.1416 28.8435 8.66659 38.0352 8.66659ZM45.3268 67.9166C42.9602 67.3083 40.506 66.9999 38.0352 66.9999C21.9518 66.9999 8.86849 80.0833 8.86849 96.1666C8.86849 98.4666 7.00182 100.333 4.70182 100.333C2.40182 100.333 0.535156 98.4666 0.535156 96.1666C0.535156 75.4916 17.3602 58.6666 38.0352 58.6666C41.2102 58.6666 44.3643 59.0624 47.4102 59.8499C49.6393 60.4249 50.9768 62.6958 50.406 64.9249C49.8352 67.1541 47.5727 68.4916 45.331 67.9208L45.3268 67.9166ZM96.8727 49.8291C92.1477 45.1041 83.9143 45.1041 79.1935 49.8291L51.2477 77.7749C48.1018 80.9208 46.3643 85.1083 46.3643 89.5624V96.1708C46.3643 98.4708 48.231 100.337 50.531 100.337H57.1393C61.5935 100.337 65.7768 98.5999 68.9227 95.4541L96.8685 67.5083C99.231 65.1458 100.531 62.0083 100.531 58.6666C100.531 55.3249 99.231 52.1874 96.8727 49.8291ZM90.9768 61.6124L63.0268 89.5583C61.456 91.1333 59.3643 91.9999 57.1352 91.9999H54.6935V89.5583C54.6935 87.3333 55.5602 85.2416 57.1352 83.6666L85.0852 55.7208C86.656 54.1458 89.4018 54.1458 90.9768 55.7208C91.7643 56.5041 92.1977 57.5499 92.1977 58.6666C92.1977 59.7833 91.7643 60.8249 90.9768 61.6124Z" fill="#F2EBE3"/>
</g>
<defs>
<clipPath id="clip0_1191_14018">
<rect width="100" height="100" fill="white" transform="translate(0.535156 0.333252)"/>
</clipPath>
</defs>
</svg>
