<svg width="101" height="101" viewBox="0 0 101 101" fill="none" xmlns="http://www.w3.org/2000/svg">
<g clip-path="url(#clip0_1625_24367)">
<path d="M96.8297 4.34164C95.3359 2.82967 93.4773 1.72854 91.4337 1.14463C89.39 0.560717 87.2302 0.513765 85.1631 1.00831L18.4964 15.05C14.6571 15.5765 11.0411 17.1645 8.05558 19.635C5.07003 22.1056 2.83354 25.3606 1.59797 29.0336C0.362392 32.7065 0.17681 36.6515 1.06212 40.4242C1.94743 44.1969 3.86847 47.6475 6.60891 50.3875L13.7672 57.5416C14.1547 57.929 14.4619 58.3889 14.6714 58.8951C14.8809 59.4013 14.9885 59.9438 14.9881 60.4916V73.6916C14.9973 75.5476 15.4245 77.3776 16.2381 79.0458L16.2047 79.075L16.3131 79.1833C17.534 81.638 19.528 83.6233 21.9881 84.8333L22.0964 84.9416L22.1256 84.9083C23.7937 85.7219 25.6238 86.1491 27.4797 86.1583H40.6797C41.7841 86.1574 42.8437 86.595 43.6256 87.375L50.7797 94.5291C52.6986 96.4692 54.9824 98.0104 57.4997 99.0638C60.0169 100.117 62.7177 100.662 65.4464 100.667C67.7204 100.664 69.9788 100.292 72.1339 99.5666C75.7733 98.3716 79.0063 96.1834 81.4682 93.2488C83.9302 90.3142 85.5231 86.75 86.0672 82.9583L100.13 16.1458C100.65 14.061 100.619 11.8767 100.041 9.80732C99.4622 7.73792 98.3557 5.85443 96.8297 4.34164ZM19.6672 51.6583L12.5047 44.5041C10.8369 42.8765 9.66796 40.8068 9.1351 38.5381C8.60224 36.2694 8.72758 33.8958 9.49641 31.6958C10.2418 29.4388 11.6198 27.4434 13.4664 25.9469C15.313 24.4504 17.5506 23.5158 19.9131 23.2541L85.9172 9.35831L23.3131 71.9708V60.4916C23.3194 58.8514 23.0004 57.2261 22.3746 55.7099C21.7488 54.1937 20.8286 52.8166 19.6672 51.6583ZM77.8797 81.5333C77.5598 83.8347 76.6048 86.0014 75.1218 87.7901C73.6389 89.5789 71.6867 90.9189 69.4845 91.6598C67.2822 92.4006 64.917 92.513 62.6545 91.9843C60.3919 91.4556 58.3215 90.3067 56.6756 88.6666L49.5089 81.5C48.3521 80.3368 46.9762 79.4146 45.4607 78.7867C43.9452 78.1587 42.3202 77.8375 40.6797 77.8416H29.2006L91.8131 15.25L77.8797 81.5333Z" fill="#F9F9F9"/>
</g>
<defs>
<clipPath id="clip0_1625_24367">
<rect width="100" height="100" fill="white" transform="translate(0.5 0.666626)"/>
</clipPath>
</defs>
</svg>
