<svg width="101" height="101" viewBox="0 0 101 101" fill="none" xmlns="http://www.w3.org/2000/svg">
<g clip-path="url(#clip0_1791_40438)">
<path d="M83.6237 23.75L69.082 9.20829C63.582 3.70829 56.2487 0.666626 48.457 0.666626H29.6654C18.1654 0.666626 8.83203 9.99996 8.83203 21.5V79.8333C8.83203 91.3333 18.1654 100.667 29.6654 100.667H71.332C82.832 100.667 92.1654 91.3333 92.1654 79.8333V44.375C92.1654 36.5833 89.1237 29.25 83.6237 23.75ZM77.7487 29.625C79.082 30.9583 80.207 32.4166 81.1237 34H63.0404C60.7487 34 58.8737 32.125 58.8737 29.8333V11.75C60.457 12.6666 61.9154 13.7916 63.2487 15.125L77.7904 29.6666L77.7487 29.625ZM83.832 79.8333C83.832 86.7083 78.207 92.3333 71.332 92.3333H29.6654C22.7904 92.3333 17.1654 86.7083 17.1654 79.8333V21.5C17.1654 14.625 22.7904 8.99996 29.6654 8.99996H48.457C49.1237 8.99996 49.832 8.99996 50.4987 9.08329V29.8333C50.4987 36.7083 56.1237 42.3333 62.9987 42.3333H83.7487C83.832 43 83.832 43.6666 83.832 44.375V79.8333ZM30.0404 54.8333H25.4987C23.207 54.8333 21.332 56.7083 21.332 59V77.5C21.332 78.9583 22.4987 80.0833 23.9154 80.0833C25.332 80.0833 26.4987 78.9166 26.4987 77.5V72.4166H29.9987C34.9154 72.4166 38.9154 68.4583 38.9154 63.625C38.9154 58.7916 34.9154 54.8333 29.9987 54.8333H30.0404ZM30.0404 67.2083H26.582V60.0416H30.082C32.082 60.0416 33.7904 61.6666 33.7904 63.625C33.7904 65.5833 32.082 67.2083 30.082 67.2083H30.0404ZM79.7487 57.4583C79.7487 58.9166 78.582 60.0416 77.1654 60.0416H70.1237V64.7916H75.2904C76.7487 64.7916 77.8737 65.9583 77.8737 67.375C77.8737 68.7916 76.707 69.9583 75.2904 69.9583H70.1237V77.4583C70.1237 78.9166 68.957 80.0416 67.5404 80.0416C66.1237 80.0416 64.957 78.875 64.957 77.4583V57.4166C64.957 55.9583 66.1237 54.8333 67.5404 54.8333H77.1654C78.6237 54.8333 79.7487 56 79.7487 57.4166V57.4583ZM50.8737 54.875H46.332C44.0404 54.875 42.1654 56.75 42.1654 59.0416V77.5416C42.1654 79 43.332 79.875 44.7487 79.875C46.1654 79.875 50.832 79.875 50.832 79.875C55.7487 79.875 59.7487 75.9166 59.7487 71.0833V63.6666C59.7487 58.8333 55.7487 54.875 50.832 54.875H50.8737ZM54.582 71.0833C54.582 73.0416 52.8737 74.6666 50.8737 74.6666H47.4154V60.0833H50.9154C52.9154 60.0833 54.6237 61.7083 54.6237 63.6666V71.0833H54.582Z" fill="#F9F9F9"/>
</g>
<defs>
<clipPath id="clip0_1791_40438">
<rect width="100" height="100" fill="white" transform="translate(0.5 0.666626)"/>
</clipPath>
</defs>
</svg>
