<svg width="101" height="101" viewBox="0 0 101 101" fill="none" xmlns="http://www.w3.org/2000/svg">
<g clip-path="url(#clip0_1191_14019)">
<path d="M50.5352 50.3333C64.3227 50.3333 75.5352 39.1208 75.5352 25.3333C75.5352 11.5458 64.3227 0.333252 50.5352 0.333252C36.7477 0.333252 25.5352 11.5458 25.5352 25.3333C25.5352 39.1208 36.7477 50.3333 50.5352 50.3333ZM50.5352 8.66658C59.7268 8.66658 67.2018 16.1416 67.2018 25.3333C67.2018 34.5249 59.7268 41.9999 50.5352 41.9999C41.3435 41.9999 33.8685 34.5249 33.8685 25.3333C33.8685 16.1416 41.3435 8.66658 50.5352 8.66658ZM88.0352 96.1666C88.0352 98.4666 86.1727 100.333 83.8685 100.333C81.5643 100.333 79.7018 98.4666 79.7018 96.1666C79.7018 83.5874 71.681 72.8749 60.4977 68.7916L54.1768 78.2749L58.731 94.8999C59.4935 97.6749 57.0435 100.337 53.7268 100.337H47.3435C44.0268 100.337 41.581 97.6749 42.3393 94.8999L46.8935 78.2749L40.5727 68.7916C29.3893 72.8749 21.3685 83.5874 21.3685 96.1707C21.3685 98.4707 19.5018 100.337 17.2018 100.337C14.9018 100.337 13.0352 98.4707 13.0352 96.1707C13.0352 75.4958 29.8602 58.6707 50.5352 58.6707C71.2102 58.6707 88.0352 75.4916 88.0352 96.1666Z" fill="#F2EBE3"/>
</g>
<defs>
<clipPath id="clip0_1191_14019">
<rect width="100" height="100" fill="white" transform="translate(0.535156 0.333252)"/>
</clipPath>
</defs>
</svg>
