<svg width="101" height="71" viewBox="0 0 101 71" fill="none" xmlns="http://www.w3.org/2000/svg">
<g id="Group">
<path id="Vector" d="M96.152 30.9854H4.84776C2.44653 30.9854 0.5 32.9319 0.5 35.3331C0.5 37.7343 2.44653 39.6809 4.84776 39.6809H96.152C98.5533 39.6809 100.5 37.7343 100.5 35.3331C100.5 32.9319 98.5533 30.9854 96.152 30.9854Z" fill="#F2EBE3"/>
<path id="Vector_2" d="M4.84776 9.24617H96.152C98.5533 9.24617 100.5 7.29963 100.5 4.89841C100.5 2.49719 98.5533 0.550659 96.152 0.550659H4.84776C2.44653 0.550659 0.5 2.49719 0.5 4.89841C0.5 7.29963 2.44653 9.24617 4.84776 9.24617Z" fill="#F2EBE3"/>
<path id="Vector_3" d="M96.152 61.42H4.84776C2.44653 61.42 0.5 63.3668 0.5 65.768C0.5 68.1692 2.44653 70.1158 4.84776 70.1158H96.152C98.5533 70.1158 100.5 68.1692 100.5 65.768C100.5 63.3668 98.5533 61.42 96.152 61.42Z" fill="#F2EBE3"/>
</g>
</svg>
