<svg width="120" height="158" viewBox="0 0 120 158" fill="none" xmlns="http://www.w3.org/2000/svg">
<g id="Group 733">
<path id="Vector" d="M58.8834 54.1217L17.1844 78.1606C16.2584 78.6941 15.6914 79.659 15.6914 80.7001V119.218C15.6914 120.851 17.0632 122.176 18.7554 122.176H24.0663H29.5158C31.2079 122.176 32.5797 120.851 32.5797 119.218V89.8384C32.5797 88.8186 33.1244 87.8703 34.021 87.3296L58.7553 72.4219C59.7962 71.7949 61.1244 71.8274 62.1306 72.5053L84.1254 87.3154C84.9472 87.8685 85.4368 88.7748 85.4368 89.7414V119.218C85.4368 120.851 86.8082 122.176 88.5008 122.176H101.23C102.922 122.176 104.294 120.851 104.294 119.218V80.6812C104.294 79.6501 103.738 78.6935 102.826 78.1564L62.0503 54.1363C61.0793 53.5643 59.86 53.5587 58.8834 54.1217Z" fill="url(#paint0_linear_3660_250)"/>
<path id="Vector_2" d="M58.9658 48.152L20.2447 68.943C18.2024 70.0398 15.6914 68.6141 15.6914 66.3579V2.95776C15.6914 1.32424 17.0632 0 18.7554 0H29.5158C31.2079 0 32.5797 1.32424 32.5797 2.95776V38.4267C32.5797 40.5763 34.8799 42.0079 36.9082 41.1207L59.1335 31.3991C59.9794 31.029 60.9534 31.0494 61.7819 31.4542L80.9892 40.8405C83.0267 41.8365 85.4368 40.4068 85.4368 38.2016V2.95776C85.4368 1.32424 86.8082 0 88.5008 0H101.23C102.922 0 104.294 1.32424 104.294 2.95776V66.3047C104.294 68.5727 101.758 69.9966 99.716 68.8762L61.9694 48.1654C61.0391 47.6551 59.9008 47.6501 58.9658 48.152Z" fill="url(#paint1_linear_3660_250)"/>
<path id="Vector_3" d="M0 21.8285C0 20.1949 1.37178 18.8707 3.06395 18.8707H7.00198C8.69414 18.8707 10.0659 20.1949 10.0659 21.8285V100.365C10.0659 101.999 8.69414 103.322 7.00198 103.322H3.06395C1.37177 103.322 0 101.999 0 100.365V21.8285Z" fill="url(#paint2_linear_3660_250)"/>
<path id="Vector_4" d="M109.934 21.8285C109.934 20.1949 111.306 18.8707 112.998 18.8707H116.935C118.628 18.8707 119.999 20.1949 119.999 21.8285V100.365C119.999 101.999 118.628 103.322 116.935 103.322H112.998C111.306 103.322 109.934 101.999 109.934 100.365V21.8285Z" fill="url(#paint3_linear_3660_250)"/>
<path id="Vector_5" d="M32.1531 126.711H35.7379V145.344H32.1531V126.711ZM22.1708 145.344H18.5859V126.711H22.1708V145.344ZM32.4289 137.358H21.8674V134.404H32.4289V137.358ZM49.2105 145.344L57.8968 126.711H61.4267L70.1405 145.344H66.3903L58.9171 128.547H60.3511L52.9057 145.344H49.2105ZM53.209 141.032L54.1741 138.317H64.5979L65.563 141.032H53.209ZM88.3104 145.344L79.8723 126.711H83.7604L91.2885 143.561H89.0549L96.6658 126.711H100.251L91.84 145.344H88.3104Z" fill="#F0D8DC"/>
<path id="Vector_6" d="M26.2793 157.589V150.55H27.321V157.589H26.2793ZM29.5042 157.589V150.55H30.3585L33.6295 155.87H33.1712L36.4006 150.55H37.2548L37.2652 157.589H36.2651L36.2547 152.068H36.4943L33.6191 156.735H33.1399L30.2439 152.068H30.5043V157.589H29.5042ZM42.7456 157.67C42.19 157.67 41.6726 157.579 41.1934 157.398C40.7212 157.217 40.3114 156.966 39.9641 156.644C39.6169 156.316 39.3461 155.934 39.1516 155.498C38.9571 155.062 38.8599 154.586 38.8599 154.07C38.8599 153.553 38.9571 153.078 39.1516 152.642C39.3461 152.206 39.6169 151.827 39.9641 151.505C40.3114 151.177 40.7212 150.922 41.1934 150.741C41.6656 150.56 42.183 150.47 42.7456 150.47C43.3012 150.47 43.8116 150.56 44.2769 150.741C44.7492 150.916 45.159 151.167 45.5062 151.495C45.8604 151.817 46.1312 152.196 46.3187 152.632C46.5132 153.068 46.6104 153.547 46.6104 154.07C46.6104 154.593 46.5132 155.072 46.3187 155.508C46.1312 155.944 45.8604 156.326 45.5062 156.654C45.159 156.976 44.7492 157.227 44.2769 157.408C43.8116 157.583 43.3012 157.67 42.7456 157.67ZM42.7456 156.775C43.1484 156.775 43.52 156.708 43.8602 156.574C44.2075 156.439 44.5061 156.252 44.7561 156.011C45.0131 155.763 45.2111 155.474 45.3499 155.146C45.4958 154.817 45.5687 154.458 45.5687 154.07C45.5687 153.681 45.4958 153.322 45.3499 152.994C45.2111 152.665 45.0131 152.38 44.7561 152.139C44.5061 151.891 44.2075 151.7 43.8602 151.566C43.52 151.431 43.1484 151.365 42.7456 151.365C42.3359 151.365 41.9573 151.431 41.6101 151.566C41.2698 151.7 40.9712 151.891 40.7142 152.139C40.4572 152.38 40.2558 152.665 40.11 152.994C39.9711 153.322 39.9016 153.681 39.9016 154.07C39.9016 154.458 39.9711 154.817 40.11 155.146C40.2558 155.474 40.4572 155.763 40.7142 156.011C40.9712 156.252 41.2698 156.439 41.6101 156.574C41.9573 156.708 42.3359 156.775 42.7456 156.775ZM48.2027 157.589V150.55H51.4738C52.3141 150.55 52.96 150.714 53.4114 151.043C53.8629 151.365 54.0886 151.807 54.0886 152.37C54.0886 152.752 53.9983 153.074 53.8177 153.336C53.6441 153.597 53.4079 153.798 53.1093 153.939C52.8107 154.08 52.4878 154.15 52.1405 154.15L52.328 153.848C52.7447 153.848 53.1128 153.919 53.4323 154.06C53.7517 154.2 54.0052 154.408 54.1927 154.683C54.3802 154.951 54.474 155.287 54.474 155.689C54.474 156.292 54.2379 156.761 53.7656 157.097C53.3003 157.425 52.6058 157.589 51.6821 157.589H48.2027ZM49.2445 156.775H51.6405C52.2169 156.775 52.6579 156.681 52.9635 156.493C53.2691 156.306 53.4218 156.011 53.4218 155.608C53.4218 155.2 53.2691 154.901 52.9635 154.713C52.6579 154.526 52.2169 154.432 51.6405 154.432H49.1507V153.617H51.38C51.9078 153.617 52.3176 153.523 52.6093 153.336C52.901 153.148 53.0468 152.867 53.0468 152.491C53.0468 152.115 52.901 151.834 52.6093 151.646C52.3176 151.459 51.9078 151.365 51.38 151.365H49.2445V156.775ZM56.087 157.589V150.55H57.1287V157.589H56.087ZM59.3119 157.589V150.55H60.3537V156.715H64.3017V157.589H59.3119ZM65.4972 157.589V150.55H66.539V157.589H65.4972ZM67.6181 157.589L70.9204 150.55H71.9517L75.2645 157.589H74.1707L71.2225 151.113H71.6392L68.6911 157.589H67.6181ZM69.0244 155.83L69.3057 155.025H73.4102L73.7123 155.83H69.0244ZM70.66 149.977L72.0768 148.669H73.3477L71.5976 149.977H70.66ZM76.3522 157.589V150.55H79.1961C79.8353 150.55 80.3801 150.647 80.8317 150.842C81.2833 151.036 81.6301 151.318 81.8734 151.686C82.1167 152.055 82.238 152.494 82.238 153.004C82.238 153.513 82.1167 153.953 81.8734 154.321C81.6301 154.683 81.2833 154.961 80.8317 155.156C80.3801 155.35 79.8353 155.447 79.1961 155.447H76.9251L77.3939 154.985V157.589H76.3522ZM81.2275 157.589L79.3732 155.035H80.4879L82.363 157.589H81.2275ZM77.3939 155.085L76.9251 154.593H79.1649C79.8316 154.593 80.3353 154.455 80.6754 154.18C81.0229 153.899 81.1963 153.507 81.1963 153.004C81.1963 152.501 81.0229 152.112 80.6754 151.837C80.3353 151.562 79.8316 151.425 79.1649 151.425H76.9251L77.3939 150.922V155.085ZM83.9208 157.589V150.55H84.9625V157.589H83.9208ZM86.0416 157.589L89.3439 150.55H90.3753L93.688 157.589H92.5942L89.6461 151.113H90.0627L87.1146 157.589H86.0416ZM87.448 155.83L87.7292 155.025H91.8337L92.1358 155.83H87.448Z" fill="#F0D8DC"/>
</g>
<defs>
<linearGradient id="paint0_linear_3660_250" x1="64.1675" y1="53.0815" x2="64.1675" y2="121.554" gradientUnits="userSpaceOnUse">
<stop stop-color="#D6808E"/>
<stop offset="1" stop-color="#FFE1E6"/>
</linearGradient>
<linearGradient id="paint1_linear_3660_250" x1="64.1675" y1="-0.629483" x2="64.1675" y2="68.691" gradientUnits="userSpaceOnUse">
<stop stop-color="#D6808E"/>
<stop offset="1" stop-color="#FFE1E6"/>
</linearGradient>
<linearGradient id="paint2_linear_3660_250" x1="5.50728" y1="18.1038" x2="5.50728" y2="102.556" gradientUnits="userSpaceOnUse">
<stop stop-color="#D6808E"/>
<stop offset="1" stop-color="#FFE1E6"/>
</linearGradient>
<linearGradient id="paint3_linear_3660_250" x1="115.441" y1="18.1038" x2="115.441" y2="102.556" gradientUnits="userSpaceOnUse">
<stop stop-color="#D6808E"/>
<stop offset="1" stop-color="#FFE1E6"/>
</linearGradient>
</defs>
</svg>
