<svg width="101" height="101" viewBox="0 0 101 101" fill="none" xmlns="http://www.w3.org/2000/svg">
<g clip-path="url(#clip0_1191_14022)">
<path d="M83.8333 25.7541V21.1666C83.8333 9.67908 74.4875 0.333252 63 0.333252H38C26.5125 0.333252 17.1667 9.67908 17.1667 21.1666V25.7541C7.67083 27.6916 0.5 36.1082 0.5 46.1666V79.4999C0.5 90.9874 9.84583 100.333 21.3333 100.333H79.6667C91.1542 100.333 100.5 90.9874 100.5 79.4999V46.1666C100.5 36.1082 93.3292 27.6874 83.8333 25.7541ZM8.83333 79.4999V46.1666C8.83333 40.7332 12.3167 36.1041 17.1667 34.3833V91.2832C12.3167 89.5624 8.83333 84.9333 8.83333 79.4999ZM25.5 21.1666C25.5 14.2749 31.1083 8.66658 38 8.66658H63C69.8917 8.66658 75.5 14.2749 75.5 21.1666V91.9999H25.5V21.1666ZM92.1667 79.4999C92.1667 84.9333 88.6833 89.5624 83.8333 91.2832V34.3833C88.6833 36.1041 92.1667 40.7332 92.1667 46.1666V79.4999ZM46.3333 58.6666C46.3333 60.9666 44.4708 62.8332 42.1667 62.8332H38C35.6958 62.8332 33.8333 60.9666 33.8333 58.6666C33.8333 56.3666 35.6958 54.4999 38 54.4999H42.1667C44.4708 54.4999 46.3333 56.3666 46.3333 58.6666ZM67.1667 58.6666C67.1667 60.9666 65.3042 62.8332 63 62.8332H58.8333C56.5292 62.8332 54.6667 60.9666 54.6667 58.6666C54.6667 56.3666 56.5292 54.4999 58.8333 54.4999H63C65.3042 54.4999 67.1667 56.3666 67.1667 58.6666ZM46.3333 75.3333C46.3333 77.6332 44.4708 79.4999 42.1667 79.4999H38C35.6958 79.4999 33.8333 77.6332 33.8333 75.3333C33.8333 73.0332 35.6958 71.1666 38 71.1666H42.1667C44.4708 71.1666 46.3333 73.0332 46.3333 75.3333ZM67.1667 75.3333C67.1667 77.6332 65.3042 79.4999 63 79.4999H58.8333C56.5292 79.4999 54.6667 77.6332 54.6667 75.3333C54.6667 73.0332 56.5292 71.1666 58.8333 71.1666H63C65.3042 71.1666 67.1667 73.0332 67.1667 75.3333ZM54.6667 37.8333C54.6667 40.1333 52.8042 41.9999 50.5 41.9999C48.1958 41.9999 46.3333 40.1333 46.3333 37.8333V33.6666H42.1667C39.8625 33.6666 38 31.7999 38 29.4999C38 27.1999 39.8625 25.3333 42.1667 25.3333H46.3333V21.1666C46.3333 18.8666 48.1958 16.9999 50.5 16.9999C52.8042 16.9999 54.6667 18.8666 54.6667 21.1666V25.3333H58.8333C61.1375 25.3333 63 27.1999 63 29.4999C63 31.7999 61.1375 33.6666 58.8333 33.6666H54.6667V37.8333Z" fill="#F2EBE3"/>
</g>
<defs>
<clipPath id="clip0_1191_14022">
<rect width="100" height="100" fill="white" transform="translate(0.5 0.333252)"/>
</clipPath>
</defs>
</svg>
