<svg width="101" height="101" viewBox="0 0 101 101" fill="none" xmlns="http://www.w3.org/2000/svg">
<g clip-path="url(#clip0_4343_44604)">
<path d="M100.501 8.99996V25.6666C100.501 27.9666 98.6385 29.8333 96.3344 29.8333C94.0302 29.8333 92.1677 27.9666 92.1677 25.6666V14.8916L75.2385 31.8166C69.6385 37.4166 60.526 37.4208 54.926 31.8166L44.3469 21.2416C41.9927 18.8875 38.1677 18.8958 35.8177 21.2416L7.61354 49.4458C6.80104 50.2583 5.73438 50.6666 4.66771 50.6666C3.60104 50.6666 2.53438 50.2583 1.72188 49.4458C0.0927083 47.8166 0.0927083 45.1833 1.72188 43.5541L29.926 15.35C35.526 9.74996 44.6385 9.74579 50.2385 15.35L60.8177 25.925C63.1719 28.2833 66.9969 28.2708 69.3469 25.925L86.2719 8.99996H75.4969C73.1927 8.99996 71.3302 7.13329 71.3302 4.83329C71.3302 2.53329 73.1927 0.666626 75.4969 0.666626H92.1636C96.7594 0.666626 100.501 4.40413 100.501 8.99996ZM90.8552 68.4458L78.1885 66.3375C76.6302 66.0791 75.501 64.7458 75.501 63.1666C75.501 60.8666 77.3677 59 79.6677 59H89.1177C90.601 59 91.9844 59.7958 92.7302 61.0875C93.8719 63.0791 96.4177 63.7666 98.4219 62.6041C100.414 61.4541 101.097 58.9041 99.9385 56.9125C97.7135 53.0625 93.5635 50.6666 89.1135 50.6666H87.9969V46.5C87.9969 44.2 86.1344 42.3333 83.8302 42.3333C81.526 42.3333 79.6635 44.2 79.6635 46.5V50.6666C72.7719 50.6666 67.1635 56.275 67.1635 63.1666C67.1635 68.8291 71.2219 73.625 76.8094 74.5541L89.476 76.6625C91.0344 76.9208 92.1636 78.2541 92.1636 79.8333C92.1636 82.1333 90.2969 84 87.9969 84H78.5469C77.0636 84 75.6802 83.2041 74.9344 81.9125C73.7885 79.9166 71.2344 79.225 69.2427 80.3958C67.251 81.5458 66.5677 84.0958 67.726 86.0875C69.951 89.9416 74.101 92.3333 78.551 92.3333H79.6677V96.5C79.6677 98.8041 81.5302 100.667 83.8344 100.667C86.1385 100.667 88.001 98.8041 88.001 96.5V92.3333C94.8927 92.3333 100.501 86.725 100.501 79.8333C100.501 74.1708 96.4427 69.375 90.8552 68.4458ZM8.83438 59C6.53021 59 4.66771 60.8625 4.66771 63.1666V96.5C4.66771 98.8041 6.53021 100.667 8.83438 100.667C11.1385 100.667 13.001 98.8041 13.001 96.5V63.1666C13.001 60.8625 11.1385 59 8.83438 59ZM29.6677 40.25C27.3635 40.25 25.501 42.1166 25.501 44.4166V96.5C25.501 98.8041 27.3635 100.667 29.6677 100.667C31.9719 100.667 33.8344 98.8041 33.8344 96.5V44.4166C33.8344 42.1166 31.9719 40.25 29.6677 40.25ZM50.501 40.25C48.1969 40.25 46.3344 42.1166 46.3344 44.4166V96.5C46.3344 98.8041 48.1969 100.667 50.501 100.667C52.8052 100.667 54.6677 98.8041 54.6677 96.5V44.4166C54.6677 42.1166 52.8052 40.25 50.501 40.25Z" fill="#F9F9F9"/>
</g>
<defs>
<clipPath id="clip0_4343_44604">
<rect width="100" height="100" fill="white" transform="translate(0.5 0.666626)"/>
</clipPath>
</defs>
</svg>