<svg width="49" height="41" viewBox="0 0 49 41" fill="none" xmlns="http://www.w3.org/2000/svg">
<g clip-path="url(#clip0_1870_45840)">
<path d="M5.59087 3.95658C6.26187 3.38558 7.15088 3.13958 8.02987 3.28258C8.24187 3.31658 8.44587 3.37558 8.63887 3.45458C8.98587 2.18158 10.1519 1.24158 11.5329 1.24158C12.0679 1.24158 12.5699 1.38258 13.0049 1.62958C13.5389 0.796577 14.4719 0.241577 15.5329 0.241577C16.9149 0.241577 18.0809 1.18058 18.4279 2.45458C18.6219 2.37558 18.8249 2.31658 19.0369 2.28158C19.9159 2.13958 20.8049 2.38458 21.4759 2.95558C22.1479 3.52658 22.5329 4.35958 22.5329 5.24158V13.9396L23.4889 13.0466C24.6969 11.9216 26.5959 11.9856 27.7229 13.1916C28.8519 14.3996 28.7889 16.3016 27.5929 17.4226L24.2989 20.5986C21.8629 22.9476 18.6589 24.2406 15.2759 24.2406H13.5329C8.57087 24.2406 4.53288 20.2026 4.53288 15.2406V6.24258C4.53288 5.36158 4.91887 4.52858 5.59087 3.95658ZM6.53387 15.2426C6.53387 19.1026 9.67387 22.2426 13.5339 22.2426H15.2769C18.1389 22.2426 20.8509 21.1486 22.9119 19.1616L26.2159 15.9756C26.6189 15.5976 26.6399 14.9626 26.2629 14.5586C25.8869 14.1576 25.2549 14.1366 24.8539 14.5106L22.2159 16.9736C21.9239 17.2456 21.4989 17.3176 21.1349 17.1596C20.7699 17.0006 20.5329 16.6406 20.5329 16.2426V5.24258C20.5329 4.94858 20.4049 4.67058 20.1799 4.48058C19.9519 4.28758 19.6609 4.20858 19.3569 4.25658C18.8949 4.33258 18.5319 4.81258 18.5319 5.34958V10.2426C18.5319 10.7946 18.0839 11.2426 17.5319 11.2426C16.9799 11.2426 16.5319 10.7946 16.5319 10.2426V3.24258C16.5319 2.69158 16.0829 2.24258 15.5319 2.24258C14.9809 2.24258 14.5319 2.69158 14.5319 3.24258V10.2426C14.5319 10.7946 14.0839 11.2426 13.5319 11.2426C12.9799 11.2426 12.5319 10.7946 12.5319 10.2426V4.24258C12.5319 3.69158 12.0829 3.24258 11.5319 3.24258C10.9809 3.24258 10.5319 3.69158 10.5319 4.24258V10.2426C10.5319 10.7946 10.0839 11.2426 9.53187 11.2426C8.97987 11.2426 8.53187 10.7946 8.53187 10.2426V6.34958C8.53187 5.81158 8.16987 5.33158 7.70687 5.25658C7.40388 5.20958 7.11188 5.28658 6.88387 5.48058C6.65987 5.67058 6.53087 5.94858 6.53087 6.24258V15.2426H6.53387Z" fill="#5F1E2A"/>
<ellipse cx="24.0352" cy="17.2426" rx="6.5" ry="6" fill="#F2EBE3"/>
<rect x="17.5352" y="17.2426" width="5" height="8" fill="#F2EBE3"/>
</g>
<path d="M34.7255 36.627C33.8703 36.8389 32.9649 36.6627 32.2418 36.1428C32.0672 36.0179 31.9109 35.8741 31.7734 35.7173C30.8952 36.7021 29.4324 37.0236 28.1963 36.4079C27.7174 36.1693 27.3309 35.8193 27.0517 35.4042C26.2023 35.9118 25.1197 35.9926 24.17 35.5195C22.933 34.9033 22.308 33.5429 22.5654 32.2479C22.3565 32.2321 22.1485 32.1944 21.9431 32.1312C21.093 31.8664 20.4065 31.2507 20.0605 30.4404C19.7136 29.6297 19.7404 28.7124 20.1336 27.923L24.0117 20.1374L22.7579 20.5104C21.175 20.9788 19.5037 20.0748 19.0327 18.4929C18.5607 16.9082 19.4651 15.2338 21.0355 14.7637L25.4 13.3895C28.6278 12.373 32.0722 12.6442 35.1003 14.1526L36.6605 14.9297C41.102 17.1421 42.916 22.5569 40.7036 26.9984L36.6918 35.0525C36.2989 35.8411 35.582 36.4146 34.7255 36.627ZM38.9134 26.1044C40.6345 22.6493 39.2239 18.4387 35.7688 16.7177L34.2086 15.9405C31.6468 14.6645 28.7315 14.4345 26.0008 15.2942L21.6229 16.6728C21.0936 16.8315 20.7917 17.3905 20.949 17.9202C21.1068 18.4468 21.6631 18.7474 22.1888 18.5914L25.6482 17.563C26.0309 17.4497 26.4434 17.5747 26.6988 17.8785C26.9546 18.1835 27.0062 18.6114 26.8288 18.9677L21.9243 28.8138C21.7932 29.0769 21.7838 29.3829 21.9005 29.6532C22.0185 29.9277 22.2438 30.1281 22.5373 30.2207C22.9847 30.3586 23.5236 30.0908 23.7631 29.6102L25.9447 25.2304C26.1908 24.7364 26.7916 24.5351 27.2857 24.7812C27.7797 25.0273 27.981 25.6281 27.7349 26.1222L24.6138 32.3879C24.3682 32.8811 24.5699 33.4832 25.0631 33.7288C25.5563 33.9745 26.1584 33.7728 26.404 33.2796L29.5251 27.0139C29.7712 26.5198 30.372 26.3185 30.8661 26.5647C31.3602 26.8108 31.5614 27.4115 31.3153 27.9056L28.6401 33.2762C28.3944 33.7694 28.5962 34.3715 29.0894 34.6172C29.5826 34.8629 30.1846 34.6612 30.4303 34.168L33.1055 28.7974C33.3516 28.3033 33.9524 28.102 34.4465 28.3481C34.9406 28.5942 35.1418 29.195 34.8957 29.6891L33.16 33.1737C32.9201 33.6553 33.0301 34.2463 33.4111 34.5199C33.6613 34.6971 33.957 34.7583 34.2476 34.6863C34.5328 34.6161 34.7723 34.4248 34.9033 34.1617L38.9161 26.1058L38.9134 26.1044Z" fill="#5F1E2A"/>
<path d="M42.5352 14.7426C46.0352 17.7426 45.7018 21.9426 45.0352 22.7426" stroke="black"/>
<path d="M45.5352 14.2426C49.0352 17.2426 48.7018 21.4426 48.0352 22.2426" stroke="black"/>
<path d="M3.86719 20.2426C4.94858 24.7237 8.84119 26.3357 9.85679 26.1055" stroke="black"/>
<path d="M1.86719 22.2426C2.94858 26.7237 6.84119 28.3357 7.85679 28.1055" stroke="black"/>
<defs>
<clipPath id="clip0_1870_45840">
<rect width="24" height="24" fill="white" transform="matrix(-1 0 0 1 28.5352 0.242554)"/>
</clipPath>
</defs>
</svg>
