<svg width="101" height="101" viewBox="0 0 101 101" fill="none" xmlns="http://www.w3.org/2000/svg">
<g clip-path="url(#clip0_1191_18323)">
<path d="M96.3333 46.1666H54.6667V4.49992C54.6667 3.39485 54.2277 2.33504 53.4463 1.55364C52.6649 0.772239 51.6051 0.333252 50.5 0.333252C49.3949 0.333252 48.3351 0.772239 47.5537 1.55364C46.7723 2.33504 46.3333 3.39485 46.3333 4.49992V46.1666H4.66667C3.5616 46.1666 2.50179 46.6056 1.72039 47.387C0.938987 48.1684 0.5 49.2282 0.5 50.3333C0.5 51.4383 0.938987 52.4981 1.72039 53.2795C2.50179 54.0609 3.5616 54.4999 4.66667 54.4999H46.3333V96.1666C46.3333 97.2717 46.7723 98.3315 47.5537 99.1129C48.3351 99.8943 49.3949 100.333 50.5 100.333C51.6051 100.333 52.6649 99.8943 53.4463 99.1129C54.2277 98.3315 54.6667 97.2717 54.6667 96.1666V54.4999H96.3333C97.4384 54.4999 98.4982 54.0609 99.2796 53.2795C100.061 52.4981 100.5 51.4383 100.5 50.3333C100.5 49.2282 100.061 48.1684 99.2796 47.387C98.4982 46.6056 97.4384 46.1666 96.3333 46.1666Z" fill="#F2EBE3"/>
</g>
<defs>
<clipPath id="clip0_1191_18323">
<rect width="100" height="100" fill="white" transform="translate(0.5 0.333252)"/>
</clipPath>
</defs>
</svg>
