<svg width="100" height="100" viewBox="0 0 100 100" fill="none" xmlns="http://www.w3.org/2000/svg">
<g clip-path="url(#clip0_4878_44831)">
<path d="M50.0013 16.6667C54.6037 16.6667 58.3346 12.9357 58.3346 8.33333C58.3346 3.73096 54.6037 0 50.0013 0C45.3989 0 41.668 3.73096 41.668 8.33333C41.668 12.9357 45.3989 16.6667 50.0013 16.6667Z" fill="white"/>
<path d="M50.0013 58.3334C54.6037 58.3334 58.3346 54.6024 58.3346 50C58.3346 45.3976 54.6037 41.6667 50.0013 41.6667C45.3989 41.6667 41.668 45.3976 41.668 50C41.668 54.6024 45.3989 58.3334 50.0013 58.3334Z" fill="white"/>
<path d="M50.0013 100C54.6037 100 58.3346 96.2691 58.3346 91.6667C58.3346 87.0643 54.6037 83.3334 50.0013 83.3334C45.3989 83.3334 41.668 87.0643 41.668 91.6667C41.668 96.2691 45.3989 100 50.0013 100Z" fill="white"/>
</g>
<defs>
<clipPath id="clip0_4878_44831">
<rect width="100" height="100" fill="white"/>
</clipPath>
</defs>
</svg>
