<svg width="101" height="101" viewBox="0 0 101 101" fill="none" xmlns="http://www.w3.org/2000/svg">
<g clip-path="url(#clip0_1191_14996)">
<path d="M96.152 45.9854H4.84776C2.44653 45.9854 0.5 47.9319 0.5 50.3331C0.5 52.7343 2.44653 54.6809 4.84776 54.6809H96.152C98.5533 54.6809 100.5 52.7343 100.5 50.3331C100.5 47.9319 98.5533 45.9854 96.152 45.9854Z" fill="#F2EBE3"/>
<path d="M4.84776 24.2462H96.152C98.5533 24.2462 100.5 22.2996 100.5 19.8984C100.5 17.4972 98.5533 15.5507 96.152 15.5507H4.84776C2.44653 15.5507 0.5 17.4972 0.5 19.8984C0.5 22.2996 2.44653 24.2462 4.84776 24.2462Z" fill="#F2EBE3"/>
<path d="M96.152 76.42H4.84776C2.44653 76.42 0.5 78.3668 0.5 80.768C0.5 83.1692 2.44653 85.1158 4.84776 85.1158H96.152C98.5533 85.1158 100.5 83.1692 100.5 80.768C100.5 78.3668 98.5533 76.42 96.152 76.42Z" fill="#F2EBE3"/>
</g>
<defs>
<clipPath id="clip0_1191_14996">
<rect width="100" height="100" fill="white" transform="translate(0.5 0.333252)"/>
</clipPath>
</defs>
</svg>
