<svg width="101" height="101" viewBox="0 0 101 101" fill="none" xmlns="http://www.w3.org/2000/svg">
<g clip-path="url(#clip0_3123_46151)">
<path d="M0.501042 38.1666C0.501042 35.8666 2.36771 34 4.66771 34H13.451C14.0635 30.3583 15.4177 26.8291 17.6427 23.7041L11.4844 17.5458C9.85521 15.9166 9.85521 13.2833 11.4844 11.6541C13.1135 10.025 15.7469 10.025 17.376 11.6541L23.5344 17.8125C26.6635 15.5875 30.1927 14.2333 33.8302 13.6208V4.8333C33.8302 2.5333 35.6969 0.66663 37.9969 0.66663C40.2969 0.66663 42.1635 2.5333 42.1635 4.8333V13.6166C45.8052 14.2291 49.351 15.5583 52.4844 17.7875L58.6219 11.65C60.251 10.0208 62.8844 10.0208 64.5135 11.65C66.1427 13.2791 66.1427 15.9125 64.5135 17.5416L55.676 26.3791C54.0469 28.0083 51.4135 28.0083 49.7844 26.3791C43.2844 19.8791 32.7094 19.8791 26.2135 26.3791C19.7177 32.8791 19.7135 43.4541 26.2135 49.95C26.9969 50.7333 27.4344 51.7916 27.4344 52.8958C27.4344 54 26.9969 55.0625 26.2135 55.8458L17.0135 65.0416C16.201 65.8541 15.1344 66.2625 14.0677 66.2625C13.001 66.2625 11.9344 65.8541 11.1219 65.0416C9.49271 63.4125 9.49271 60.7791 11.1219 59.15L17.6219 52.65C15.3927 49.5208 14.0635 45.975 13.451 42.3291H4.66771C2.36771 42.3291 0.501042 40.4625 0.501042 38.1625V38.1666ZM99.2802 1.88746C97.651 0.258297 95.0177 0.258297 93.3885 1.88746L1.72187 93.5541C0.0927083 95.1833 0.0927083 97.8166 1.72187 99.4458C2.53437 100.258 3.60104 100.667 4.66771 100.667C5.73438 100.667 6.80104 100.258 7.61354 99.4458L99.2802 7.77913C100.909 6.14996 100.909 3.51663 99.2802 1.88746ZM98.101 47.5291C99.4344 46.9041 100.343 45.6208 100.484 44.15C100.626 42.6833 99.9802 41.25 98.7844 40.3833C94.5469 37.3041 89.6052 35.2416 84.4969 34.4166C82.2427 34.0416 80.0844 35.5958 79.7219 37.8708C79.3552 40.1416 80.901 42.2791 83.176 42.6458C84.8844 42.9208 86.5635 43.3791 88.1885 44.0125C81.3135 49.6791 77.1344 58.2208 77.1344 67.3333C77.1344 76.4458 81.3135 84.9916 88.1969 90.6583C85.351 91.7666 82.3219 92.3333 79.2177 92.3333C66.8552 92.3333 56.2177 83.125 54.4719 70.9083C54.1469 68.6291 52.0302 67.0583 49.7594 67.3708C47.4802 67.6958 45.8969 69.8083 46.226 72.0875C48.5552 88.3791 62.7427 100.662 79.2219 100.662C86.2844 100.662 93.0552 98.4541 98.7927 94.275C99.9844 93.4083 100.63 91.9708 100.489 90.5083C100.347 89.0375 99.4427 87.7583 98.1052 87.1291C90.4302 83.5416 85.4677 75.7666 85.4677 67.3291C85.4677 58.8916 90.426 51.1166 98.1052 47.525L98.101 47.5291Z" fill="#F9F9F9"/>
</g>
<defs>
<clipPath id="clip0_3123_46151">
<rect width="100" height="100" fill="white" transform="translate(0.5 0.666626)"/>
</clipPath>
</defs>
</svg>
