<svg width="101" height="101" viewBox="0 0 101 101" fill="none" xmlns="http://www.w3.org/2000/svg">
<g clip-path="url(#clip0_4343_44638)">
<path d="M4.66667 25.6666H96.3333C97.4384 25.6666 98.4982 25.2277 99.2796 24.4463C100.061 23.6649 100.5 22.605 100.5 21.5C100.5 20.3949 100.061 19.3351 99.2796 18.5537C98.4982 17.7723 97.4384 17.3333 96.3333 17.3333H4.66667C3.5616 17.3333 2.50179 17.7723 1.72039 18.5537C0.938987 19.3351 0.5 20.3949 0.5 21.5C0.5 22.605 0.938987 23.6649 1.72039 24.4463C2.50179 25.2277 3.5616 25.6666 4.66667 25.6666Z" fill="#F9F9F9"/>
<path d="M96.332 38.1666H37.9987C36.8936 38.1666 35.8338 38.6056 35.0524 39.387C34.271 40.1684 33.832 41.2282 33.832 42.3333C33.832 43.4384 34.271 44.4982 35.0524 45.2796C35.8338 46.061 36.8936 46.5 37.9987 46.5H96.332C97.4371 46.5 98.4969 46.061 99.2783 45.2796C100.06 44.4982 100.499 43.4384 100.499 42.3333C100.499 41.2282 100.06 40.1684 99.2783 39.387C98.4969 38.6056 97.4371 38.1666 96.332 38.1666Z" fill="#F9F9F9"/>
<path d="M96.332 79.8333H37.9987C36.8936 79.8333 35.8338 80.2723 35.0524 81.0537C34.271 81.8351 33.832 82.8949 33.832 84C33.832 85.105 34.271 86.1649 35.0524 86.9463C35.8338 87.7277 36.8936 88.1666 37.9987 88.1666H96.332C97.4371 88.1666 98.4969 87.7277 99.2783 86.9463C100.06 86.1649 100.499 85.105 100.499 84C100.499 82.8949 100.06 81.8351 99.2783 81.0537C98.4969 80.2723 97.4371 79.8333 96.332 79.8333Z" fill="#F9F9F9"/>
<path d="M96.3333 58.9999H4.66667C3.5616 58.9999 2.50179 59.4389 1.72039 60.2203C0.938987 61.0017 0.5 62.0615 0.5 63.1666C0.5 64.2717 0.938987 65.3315 1.72039 66.1129C2.50179 66.8943 3.5616 67.3333 4.66667 67.3333H96.3333C97.4384 67.3333 98.4982 66.8943 99.2796 66.1129C100.061 65.3315 100.5 64.2717 100.5 63.1666C100.5 62.0615 100.061 61.0017 99.2796 60.2203C98.4982 59.4389 97.4384 58.9999 96.3333 58.9999Z" fill="#F9F9F9"/>
</g>
<defs>
<clipPath id="clip0_4343_44638">
<rect width="100" height="100" fill="white" transform="translate(0.5 0.666626)"/>
</clipPath>
</defs>
</svg>