<svg width="101" height="101" viewBox="0 0 101 101" fill="none" xmlns="http://www.w3.org/2000/svg">
<g clip-path="url(#clip0_1191_14020)">
<path d="M34.518 33.6668C32.1044 33.629 29.7789 32.7542 27.9388 31.1918C24.1007 27.6719 21.7755 22.8019 21.4513 17.6043C20.4388 7.21679 26.1055 1.08762 32.2263 0.404288C33.7011 0.240774 35.1937 0.375627 36.6153 0.800821C38.0369 1.22602 39.3585 1.93286 40.5013 2.87929C42.2062 4.4161 43.5904 6.27482 44.5744 8.34854C45.5583 10.4223 46.1226 12.67 46.2346 14.9626C47.168 24.646 42.7013 33.6668 34.518 33.6668ZM33.1513 8.66679C30.7471 8.93346 29.3138 12.346 29.7471 16.7751C29.8679 19.7507 31.0952 22.5739 33.1888 24.6918C33.5854 25.0814 34.1125 25.31 34.668 25.3335C36.1305 25.171 38.4846 21.4126 37.9305 15.7501C36.5055 7.97512 33.2555 8.66679 33.1513 8.68762V8.66679ZM13.6846 58.6668C11.2711 58.629 8.94552 57.7542 7.10548 56.1918C3.2674 52.6719 0.942199 47.8019 0.61798 42.6043C-0.39452 32.2168 5.27215 26.0876 11.393 25.4043C12.8677 25.2427 14.3599 25.3785 15.7812 25.8036C17.2025 26.2287 18.5242 26.9345 19.668 27.8793C21.3729 29.4161 22.7571 31.2748 23.7411 33.3485C24.725 35.4223 25.2892 37.67 25.4013 39.9626C26.3346 49.646 21.6555 58.6668 13.6846 58.6668ZM12.318 33.6668C9.91381 33.9335 8.48048 37.346 8.91381 41.7751C9.03453 44.7507 10.2619 47.5739 12.3555 49.6918C12.756 50.0756 13.2808 50.3032 13.8346 50.3335C15.2971 50.171 17.6513 46.4126 17.0971 40.7501C15.993 33.1335 12.4221 33.6668 12.318 33.6876V33.6668ZM66.4846 33.6668C59.368 33.7168 53.843 24.6418 54.7888 14.9501C54.9009 12.6575 55.4651 10.4098 56.4491 8.33604C57.433 6.26232 58.8172 4.4036 60.5221 2.86679C61.6639 1.92603 62.9825 1.22347 64.4001 0.800537C65.8178 0.377604 67.3057 0.242872 68.7763 0.404288C74.8971 1.08762 80.5638 7.21679 79.5513 17.6043C79.2281 22.8034 76.9029 27.675 73.0638 31.196C71.2232 32.7568 68.8977 33.6302 66.4846 33.6668ZM63.0846 15.7501C62.5305 21.396 64.8846 25.1543 66.3471 25.3335C66.8921 25.312 67.4118 25.0979 67.8138 24.7293C69.9074 22.6114 71.1348 19.7882 71.2555 16.8126C72.1305 5.89179 63.8346 6.60429 63.0846 15.7501ZM87.318 58.6668C79.5596 58.6668 74.6763 49.6418 75.6221 39.9501C75.7342 37.6576 76.2985 35.4098 77.2824 33.336C78.2663 31.2623 79.6506 29.4036 81.3555 27.8668C82.4955 26.9226 83.8136 26.217 85.2315 25.7919C86.6493 25.3667 88.1382 25.2307 89.6096 25.3918C95.7305 26.0751 101.397 32.2043 100.385 42.5918C100.061 47.7909 97.7362 52.6625 93.8971 56.1835C92.0583 57.7489 89.7326 58.6267 87.318 58.6668ZM83.918 40.7501C83.3638 46.396 85.718 50.1543 87.1805 50.3335C87.7239 50.3048 88.2412 50.0917 88.6471 49.7293C90.7407 47.6114 91.9681 44.7882 92.0888 41.8126C92.5055 37.3835 91.0888 33.971 88.6846 33.7043C88.5805 33.6668 84.3138 33.296 83.918 40.7501ZM67.168 100.333C63.6063 100.405 60.089 99.5336 56.9721 97.8085C54.9772 96.7575 52.7562 96.2083 50.5013 96.2083C48.2464 96.2083 46.0255 96.7575 44.0305 97.8085C31.4763 104.846 16.843 97.1126 17.168 79.5001C17.168 60.1876 35.9471 42.0001 50.5013 42.0001C65.0555 42.0001 83.8346 60.1835 83.8346 79.5001C83.8346 91.7668 76.9805 100.333 67.168 100.333ZM50.5013 87.8335C54.0624 87.7634 57.579 88.6329 60.6971 90.3543C70.018 95.4293 75.6471 88.5501 75.5013 79.5001C75.5013 65.4168 60.8305 50.3335 50.5013 50.3335C40.1721 50.3335 25.5013 65.4168 25.5013 79.5001C25.368 88.5376 30.9513 95.4293 40.3055 90.3543C43.4236 88.6329 46.9403 87.7634 50.5013 87.8335Z" fill="#F2EBE3"/>
</g>
<defs>
<clipPath id="clip0_1191_14020">
<rect width="100" height="100" fill="white" transform="translate(0.5 0.333252)"/>
</clipPath>
</defs>
</svg>
