<svg width="101" height="101" viewBox="0 0 101 101" fill="none" xmlns="http://www.w3.org/2000/svg">
<g clip-path="url(#clip0_1313_13308)">
<path d="M4.63255 100.333C3.56589 100.333 2.49922 99.9249 1.68672 99.1124C0.057552 97.4832 0.057552 94.8499 1.68672 93.2207L93.3534 1.55403C94.9826 -0.0751384 97.6159 -0.0751384 99.2451 1.55403C100.874 3.1832 100.874 5.81653 99.2451 7.4457L7.57839 99.1124C6.76589 99.9249 5.69922 100.333 4.63255 100.333ZM37.9659 21.1665C37.9659 11.9749 30.4909 4.49986 21.2992 4.49986C12.1076 4.49986 4.63255 11.9749 4.63255 21.1665C4.63255 30.3582 12.1076 37.8332 21.2992 37.8332C30.4909 37.8332 37.9659 30.3582 37.9659 21.1665ZM29.6326 21.1665C29.6326 25.7624 25.8951 29.4999 21.2992 29.4999C16.7034 29.4999 12.9659 25.7624 12.9659 21.1665C12.9659 16.5707 16.7034 12.8332 21.2992 12.8332C25.8951 12.8332 29.6326 16.5707 29.6326 21.1665ZM96.2992 79.4999C96.2992 70.3082 88.8242 62.8332 79.6326 62.8332C70.4409 62.8332 62.9659 70.3082 62.9659 79.4999C62.9659 88.6915 70.4409 96.1665 79.6326 96.1665C88.8242 96.1665 96.2992 88.6915 96.2992 79.4999ZM87.9659 79.4999C87.9659 84.0957 84.2284 87.8332 79.6326 87.8332C75.0367 87.8332 71.2992 84.0957 71.2992 79.4999C71.2992 74.904 75.0367 71.1665 79.6326 71.1665C84.2284 71.1665 87.9659 74.904 87.9659 79.4999Z" fill="white"/>
</g>
<defs>
<clipPath id="clip0_1313_13308">
<rect width="100" height="100" fill="white" transform="translate(0.464844 0.333252)"/>
</clipPath>
</defs>
</svg>
