<svg width="101" height="101" viewBox="0 0 101 101" fill="none" xmlns="http://www.w3.org/2000/svg">
<g clip-path="url(#clip0_1624_36048)">
<path d="M91.3208 23.7458L62.1542 4.06245C55.075 -0.712549 45.925 -0.712549 38.8458 4.06245L9.67917 23.7458C3.92917 27.6291 0.5 34.0833 0.5 41.0208V79.8333C0.5 91.3208 9.84583 100.667 21.3333 100.667H79.6667C91.1542 100.667 100.5 91.3208 100.5 79.8333V41.0208C100.5 34.0875 97.0708 27.6291 91.3208 23.7458ZM33.8333 92.3333C33.8333 83.1416 41.3083 75.6666 50.5 75.6666C59.6917 75.6666 67.1667 83.1416 67.1667 92.3333H33.8333ZM92.1667 79.8333C92.1667 86.725 86.5583 92.3333 79.6667 92.3333H75.5C75.5 78.5458 64.2875 67.3333 50.5 67.3333C36.7125 67.3333 25.5 78.5458 25.5 92.3333H21.3333C14.4417 92.3333 8.83333 86.725 8.83333 79.8333V41.0208C8.83333 36.8583 10.8917 32.9833 14.3417 30.6583L43.5083 10.975C45.6333 9.54162 48.0667 8.82495 50.5 8.82495C52.9333 8.82495 55.3667 9.54162 57.4917 10.975L86.6583 30.6583C90.1083 32.9874 92.1667 36.8583 92.1667 41.0208V79.8333ZM50.5 29.8333C41.3083 29.8333 33.8333 37.3083 33.8333 46.5C33.8333 55.6916 41.3083 63.1666 50.5 63.1666C59.6917 63.1666 67.1667 55.6916 67.1667 46.5C67.1667 37.3083 59.6917 29.8333 50.5 29.8333ZM50.5 54.8333C45.9042 54.8333 42.1667 51.0958 42.1667 46.5C42.1667 41.9041 45.9042 38.1666 50.5 38.1666C55.0958 38.1666 58.8333 41.9041 58.8333 46.5C58.8333 51.0958 55.0958 54.8333 50.5 54.8333Z" fill="#F9F9F9"/>
</g>
<defs>
<clipPath id="clip0_1624_36048">
<rect width="100" height="100" fill="white" transform="translate(0.5 0.666626)"/>
</clipPath>
</defs>
</svg>
