<svg width="101" height="101" viewBox="0 0 101 101" fill="none" xmlns="http://www.w3.org/2000/svg">
<g clip-path="url(#clip0_1709_31815)">
<path d="M50.5 100.333C22.9292 100.333 0.5 77.9041 0.5 50.3333C0.5 22.7624 22.9292 0.333252 50.5 0.333252C78.0708 0.333252 100.5 22.7624 100.5 50.3333C100.5 77.9041 78.0708 100.333 50.5 100.333ZM50.5 8.66658C27.525 8.66658 8.83333 27.3583 8.83333 50.3333C8.83333 73.3083 27.525 91.9999 50.5 91.9999C73.475 91.9999 92.1667 73.3083 92.1667 50.3333C92.1667 27.3583 73.475 8.66658 50.5 8.66658ZM71.3333 50.3333C71.3333 48.0291 69.4708 46.1666 67.1667 46.1666H54.6667V25.3333C54.6667 23.0291 52.8 21.1666 50.5 21.1666C48.2 21.1666 46.3333 23.0291 46.3333 25.3333V50.3333C46.3333 52.6374 48.2 54.4999 50.5 54.4999H67.1667C69.4708 54.4999 71.3333 52.6374 71.3333 50.3333Z" fill="#F9F9F9"/>
</g>
<defs>
<clipPath id="clip0_1709_31815">
<rect width="100" height="100" fill="white" transform="translate(0.5 0.333252)"/>
</clipPath>
</defs>
</svg>
