<svg width="101" height="101" viewBox="0 0 101 101" fill="none" xmlns="http://www.w3.org/2000/svg">
<g clip-path="url(#clip0_1553_21507)">
<path d="M96.3333 46.5H79.3333C79.0087 44.2043 78.4085 41.9561 77.5458 39.8041L92.2417 31.2875C92.7328 31.0231 93.1659 30.6629 93.5152 30.2281C93.8646 29.7933 94.1231 29.2928 94.2754 28.7563C94.4277 28.2197 94.4708 27.6581 94.402 27.1046C94.3332 26.5511 94.154 26.017 93.875 25.5341C93.596 25.0511 93.2229 24.6291 92.7778 24.293C92.3326 23.9569 91.8246 23.7136 91.2837 23.5776C90.7428 23.4415 90.1801 23.4154 89.6289 23.5009C89.0777 23.5863 88.5493 23.7815 88.075 24.075L73.3667 32.6041C71.9606 30.8279 70.3541 29.2201 68.5792 27.8125L77.1042 13.1C77.6175 12.146 77.7392 11.0296 77.4433 9.98751C77.1475 8.94538 76.4574 8.05946 75.5193 7.51756C74.5813 6.97566 73.4691 6.82039 72.4185 7.08468C71.368 7.34897 70.4616 8.01203 69.8917 8.93329L61.3625 23.6208C59.2108 22.7571 56.9625 22.1569 54.6667 21.8333V4.83329C54.6667 3.72822 54.2277 2.66842 53.4463 1.88701C52.6649 1.10561 51.6051 0.666626 50.5 0.666626C49.3949 0.666626 48.3351 1.10561 47.5537 1.88701C46.7723 2.66842 46.3333 3.72822 46.3333 4.83329V21.8333C44.0375 22.1569 41.7892 22.7571 39.6375 23.6208L31.1208 8.92496C30.5509 8.0037 29.6445 7.34064 28.594 7.07635C27.5434 6.81206 26.4312 6.96732 25.4932 7.50922C24.5551 8.05112 23.865 8.93705 23.5692 9.97917C23.2733 11.0213 23.395 12.1377 23.9083 13.0916L32.4333 27.8125C30.6584 29.2201 29.0519 30.8279 27.6458 32.6041L12.9375 24.075C12.4632 23.7815 11.9348 23.5863 11.3836 23.5009C10.8324 23.4154 10.2697 23.4415 9.72882 23.5776C9.18792 23.7136 8.67985 23.9569 8.23471 24.293C7.78958 24.6291 7.41646 25.0511 7.13745 25.5341C6.85845 26.017 6.67925 26.5511 6.61048 27.1046C6.5417 27.6581 6.58475 28.2197 6.73708 28.7563C6.8894 29.2928 7.1479 29.7933 7.49725 30.2281C7.8466 30.6629 8.27968 31.0231 8.77083 31.2875L23.4542 39.8041C22.5914 41.9561 21.9913 44.2043 21.6667 46.5H4.66667C3.5616 46.5 2.50179 46.9389 1.72039 47.7203C0.938987 48.5017 0.5 49.5616 0.5 50.6666C0.5 51.7717 0.938987 52.8315 1.72039 53.6129C2.50179 54.3943 3.5616 54.8333 4.66667 54.8333H21.6667C21.9913 57.129 22.5914 59.3771 23.4542 61.5291L8.75833 70.0458C8.26718 70.3101 7.8341 70.6703 7.48475 71.1051C7.1354 71.5399 6.8769 72.0404 6.72458 72.577C6.57225 73.1135 6.5292 73.6752 6.59798 74.2287C6.66675 74.7822 6.84595 75.3162 7.12495 75.7992C7.40396 76.2821 7.77708 76.7042 8.22221 77.0402C8.66735 77.3763 9.17542 77.6196 9.71632 77.7557C10.2572 77.8917 10.8199 77.9178 11.3711 77.8324C11.9223 77.747 12.4507 77.5517 12.925 77.2583L27.6333 68.7291C29.0394 70.5053 30.6459 72.1132 32.4208 73.5208L23.9083 88.2333C23.395 89.1872 23.2733 90.3036 23.5692 91.3457C23.865 92.3879 24.5551 93.2738 25.4932 93.8157C26.4312 94.3576 27.5434 94.5129 28.594 94.2486C29.6445 93.9843 30.5509 93.3212 31.1208 92.4L39.6375 77.7041C41.7894 78.5688 44.0375 79.1717 46.3333 79.5V96.5C46.3333 97.605 46.7723 98.6648 47.5537 99.4462C48.3351 100.228 49.3949 100.667 50.5 100.667C51.6051 100.667 52.6649 100.228 53.4463 99.4462C54.2277 98.6648 54.6667 97.605 54.6667 96.5V79.5C56.9621 79.1744 59.2102 78.5743 61.3625 77.7125L69.8792 92.4083C70.4491 93.3295 71.3555 93.9926 72.406 94.2569C73.4566 94.5212 74.5688 94.3659 75.5068 93.824C76.4449 93.2821 77.135 92.3962 77.4308 91.3541C77.7267 90.312 77.605 89.1956 77.0917 88.2416L68.5667 73.5291C70.3416 72.1215 71.9481 70.5136 73.3542 68.7375L88.0625 77.2666C88.5368 77.5601 89.0652 77.7553 89.6164 77.8407C90.1676 77.9262 90.7303 77.9001 91.2712 77.764C91.8121 77.6279 92.3202 77.3847 92.7653 77.0486C93.2104 76.7125 93.5835 76.2905 93.8625 75.8075C94.1415 75.3246 94.3207 74.7905 94.3895 74.237C94.4583 73.6835 94.4152 73.1218 94.2629 72.5853C94.1106 72.0488 93.8521 71.5482 93.5027 71.1135C93.1534 70.6787 92.7203 70.3184 92.2292 70.0541L77.5333 61.5375C78.401 59.3833 79.0053 57.1323 79.3333 54.8333H96.3333C97.4384 54.8333 98.4982 54.3943 99.2796 53.6129C100.061 52.8315 100.5 51.7717 100.5 50.6666C100.5 49.5616 100.061 48.5017 99.2796 47.7203C98.4982 46.9389 97.4384 46.5 96.3333 46.5ZM50.5 71.5C22.9667 70.625 22.975 30.7041 50.5 29.8333C78.0333 30.7083 78.025 70.6291 50.5 71.5Z" fill="#F9F9F9"/>
</g>
<defs>
<clipPath id="clip0_1553_21507">
<rect width="100" height="100" fill="white" transform="translate(0.5 0.666626)"/>
</clipPath>
</defs>
</svg>
