<svg width="101" height="101" viewBox="0 0 101 101" fill="none" xmlns="http://www.w3.org/2000/svg">
<g clip-path="url(#clip0_1553_21637)">
<path d="M31.3327 23.8041C30.9483 23.1583 30.4027 22.6235 29.7493 22.2521C29.0959 21.8806 28.3572 21.6854 27.6057 21.6854C26.8541 21.6854 26.1154 21.8806 25.462 22.2521C24.8087 22.6235 24.263 23.1583 23.8786 23.8041L0.961913 69.6375C0.712271 70.1274 0.562087 70.662 0.520022 71.2103C0.477956 71.7586 0.54484 72.3098 0.716819 72.8321C0.888797 73.3544 1.16247 73.8375 1.52205 74.2536C1.88163 74.6696 2.32002 75.0104 2.81192 75.2562C3.30383 75.502 3.83953 75.648 4.38814 75.6858C4.93674 75.7236 5.48741 75.6525 6.00837 75.4764C6.52934 75.3004 7.01031 75.0229 7.42354 74.6601C7.83678 74.2973 8.17411 73.8563 8.41608 73.3625L15.5786 59H39.5952L46.7786 73.3625C47.0206 73.8563 47.3579 74.2973 47.7711 74.6601C48.1843 75.0229 48.6653 75.3004 49.1863 75.4764C49.7073 75.6525 50.2579 75.7236 50.8065 75.6858C51.3551 75.648 51.8908 75.502 52.3827 75.2562C52.8746 75.0104 53.313 74.6696 53.6726 74.2536C54.0322 73.8375 54.3059 73.3544 54.4778 72.8321C54.6498 72.3098 54.7167 71.7586 54.6746 71.2103C54.6326 70.662 54.4824 70.1274 54.2327 69.6375L31.3327 23.8041ZM19.7452 50.6666L27.5827 34.9833L35.4286 50.6666H19.7452Z" fill="#F9F9F9"/>
<path d="M96.332 33.9999C95.227 33.9999 94.1672 34.4389 93.3858 35.2203C92.6044 36.0017 92.1654 37.0615 92.1654 38.1666V38.2749C88.5804 35.5174 84.1882 34.0153 79.6654 33.9999C74.14 33.9999 68.841 36.1949 64.934 40.1019C61.027 44.0089 58.832 49.3079 58.832 54.8333C58.832 60.3586 61.027 65.6577 64.934 69.5647C68.841 73.4717 74.14 75.6666 79.6654 75.6666C84.1882 75.6513 88.5804 74.1491 92.1654 71.3916V71.4999C92.1654 72.605 92.6044 73.6648 93.3858 74.4462C94.1672 75.2276 95.227 75.6666 96.332 75.6666C97.4371 75.6666 98.4969 75.2276 99.2783 74.4462C100.06 73.6648 100.499 72.605 100.499 71.4999V38.1666C100.499 37.0615 100.06 36.0017 99.2783 35.2203C98.4969 34.4389 97.4371 33.9999 96.332 33.9999ZM79.6654 67.3333C77.1931 67.3333 74.7764 66.6002 72.7207 65.2266C70.6651 63.8531 69.063 61.9009 68.1169 59.6168C67.1708 57.3327 66.9232 54.8194 67.4055 52.3946C67.8879 49.9699 69.0784 47.7426 70.8265 45.9944C72.5747 44.2463 74.802 43.0558 77.2267 42.5735C79.6515 42.0911 82.1648 42.3387 84.4489 43.2848C86.733 44.2309 88.6852 45.833 90.0587 47.8886C91.4323 49.9443 92.1654 52.361 92.1654 54.8333C92.1654 58.1485 90.8484 61.3279 88.5042 63.6721C86.16 66.0163 82.9806 67.3333 79.6654 67.3333Z" fill="#F9F9F9"/>
</g>
<defs>
<clipPath id="clip0_1553_21637">
<rect width="100" height="100" fill="white" transform="translate(0.5 0.666626)"/>
</clipPath>
</defs>
</svg>
