<svg width="101" height="101" viewBox="0 0 101 101" fill="none" xmlns="http://www.w3.org/2000/svg">
<g clip-path="url(#clip0_1553_21638)">
<path d="M79.6667 25.6666H54.6667V13.1666C54.6667 12.0615 54.2277 11.0017 53.4463 10.2203C52.6649 9.43893 51.6051 8.99994 50.5 8.99994C49.3949 8.99994 48.3351 9.43893 47.5537 10.2203C46.7723 11.0017 46.3333 12.0615 46.3333 13.1666V25.6666H21.3333C15.81 25.6732 10.5148 27.8703 6.60925 31.7759C2.70367 35.6814 0.506616 40.9766 0.5 46.4999L0.5 63.1666C0.506616 68.6899 2.70367 73.9851 6.60925 77.8907C10.5148 81.7963 15.81 83.9933 21.3333 83.9999H79.6667C85.19 83.9933 90.4852 81.7963 94.3907 77.8907C98.2963 73.9851 100.493 68.6899 100.5 63.1666V46.4999C100.493 40.9766 98.2963 35.6814 94.3907 31.7759C90.4852 27.8703 85.19 25.6732 79.6667 25.6666ZM92.1667 63.1666C92.1667 66.4818 90.8497 69.6612 88.5055 72.0054C86.1613 74.3496 82.9819 75.6666 79.6667 75.6666H21.3333C18.0181 75.6666 14.8387 74.3496 12.4945 72.0054C10.1503 69.6612 8.83333 66.4818 8.83333 63.1666V46.4999C8.83333 43.1847 10.1503 40.0053 12.4945 37.6611C14.8387 35.3169 18.0181 33.9999 21.3333 33.9999H79.6667C82.9819 33.9999 86.1613 35.3169 88.5055 37.6611C90.8497 40.0053 92.1667 43.1847 92.1667 46.4999V63.1666Z" fill="#F9F9F9"/>
<path d="M62.9987 58.9999H37.9987C36.8936 58.9999 35.8338 59.4389 35.0524 60.2203C34.271 61.0017 33.832 62.0615 33.832 63.1666C33.832 64.2717 34.271 65.3315 35.0524 66.1129C35.8338 66.8943 36.8936 67.3333 37.9987 67.3333H62.9987C64.1038 67.3333 65.1636 66.8943 65.945 66.1129C66.7264 65.3315 67.1654 64.2717 67.1654 63.1666C67.1654 62.0615 66.7264 61.0017 65.945 60.2203C65.1636 59.4389 64.1038 58.9999 62.9987 58.9999Z" fill="#F9F9F9"/>
<path d="M42.1667 50.6666H46.3333C47.4384 50.6666 48.4982 50.2277 49.2796 49.4463C50.061 48.6649 50.5 47.605 50.5 46.5C50.5 45.3949 50.061 44.3351 49.2796 43.5537C48.4982 42.7723 47.4384 42.3333 46.3333 42.3333H42.1667C41.0616 42.3333 40.0018 42.7723 39.2204 43.5537C38.439 44.3351 38 45.3949 38 46.5C38 47.605 38.439 48.6649 39.2204 49.4463C40.0018 50.2277 41.0616 50.6666 42.1667 50.6666Z" fill="#F9F9F9"/>
<path d="M79.6654 42.3333H62.9987C61.8936 42.3333 60.8338 42.7723 60.0524 43.5537C59.271 44.3351 58.832 45.3949 58.832 46.5C58.832 47.605 59.271 48.6649 60.0524 49.4463C60.8338 50.2277 61.8936 50.6666 62.9987 50.6666H79.6654C80.7704 50.6666 81.8302 50.2277 82.6116 49.4463C83.393 48.6649 83.832 47.605 83.832 46.5C83.832 45.3949 83.393 44.3351 82.6116 43.5537C81.8302 42.7723 80.7704 42.3333 79.6654 42.3333Z" fill="#F9F9F9"/>
<path d="M25.5013 42.3333H21.3346C20.2296 42.3333 19.1698 42.7723 18.3884 43.5537C17.607 44.3351 17.168 45.3949 17.168 46.5C17.168 47.605 17.607 48.6649 18.3884 49.4463C19.1698 50.2277 20.2296 50.6666 21.3346 50.6666H25.5013C26.6064 50.6666 27.6662 50.2277 28.4476 49.4463C29.229 48.6649 29.668 47.605 29.668 46.5C29.668 45.3949 29.229 44.3351 28.4476 43.5537C27.6662 42.7723 26.6064 42.3333 25.5013 42.3333Z" fill="#F9F9F9"/>
<path d="M21.3346 67.3333C23.6358 67.3333 25.5013 65.4678 25.5013 63.1666C25.5013 60.8654 23.6358 58.9999 21.3346 58.9999C19.0334 58.9999 17.168 60.8654 17.168 63.1666C17.168 65.4678 19.0334 67.3333 21.3346 67.3333Z" fill="#F9F9F9"/>
<path d="M79.6667 67.3333C81.9679 67.3333 83.8333 65.4678 83.8333 63.1666C83.8333 60.8654 81.9679 58.9999 79.6667 58.9999C77.3655 58.9999 75.5 60.8654 75.5 63.1666C75.5 65.4678 77.3655 67.3333 79.6667 67.3333Z" fill="#F9F9F9"/>
</g>
<defs>
<clipPath id="clip0_1553_21638">
<rect width="100" height="100" fill="white" transform="translate(0.5 0.666626)"/>
</clipPath>
</defs>
</svg>
