<svg width="101" height="101" viewBox="0 0 101 101" fill="none" xmlns="http://www.w3.org/2000/svg">
<g clip-path="url(#clip0_1191_14017)">
<path d="M93.4976 18.7958L35.9184 76.3708C35.5313 76.7594 35.0712 77.0678 34.5646 77.2782C34.058 77.4887 33.5149 77.597 32.9663 77.597C32.4177 77.597 31.8746 77.4887 31.368 77.2782C30.8614 77.0678 30.4013 76.7594 30.0142 76.3708L7.74756 54.0833C7.36044 53.6946 6.90038 53.3862 6.39378 53.1758C5.88719 52.9654 5.34403 52.8571 4.79548 52.8571C4.24692 52.8571 3.70376 52.9654 3.19717 53.1758C2.69057 53.3862 2.23052 53.6946 1.84339 54.0833C1.45474 54.4704 1.14635 54.9305 0.93593 55.4371C0.725507 55.9437 0.617187 56.4868 0.617188 57.0354C0.617187 57.5839 0.725507 58.1271 0.93593 58.6337C1.14635 59.1403 1.45474 59.6003 1.84339 59.9875L24.1184 82.2583C26.4682 84.6037 29.6525 85.921 32.9726 85.921C36.2926 85.921 39.4769 84.6037 41.8267 82.2583L99.4017 24.6958C99.7897 24.3087 100.098 23.8489 100.308 23.3427C100.518 22.8365 100.626 22.2938 100.626 21.7458C100.626 21.1977 100.518 20.655 100.308 20.1488C100.098 19.6426 99.7897 19.1828 99.4017 18.7958C99.0146 18.4071 98.5545 18.0987 98.0479 17.8883C97.5414 17.6779 96.9982 17.5696 96.4496 17.5696C95.9011 17.5696 95.3579 17.6779 94.8513 17.8883C94.3447 18.0987 93.8847 18.4071 93.4976 18.7958Z" fill="#F2EBE3"/>
</g>
<defs>
<clipPath id="clip0_1191_14017">
<rect width="100" height="100" fill="white" transform="translate(0.5 0.333252)"/>
</clipPath>
</defs>
</svg>
