<svg width="101" height="101" viewBox="0 0 101 101" fill="none" xmlns="http://www.w3.org/2000/svg">
<g clip-path="url(#clip0_1553_21640)">
<path d="M87.195 18.5416C86.8079 18.1545 86.3483 17.8474 85.8425 17.6379C85.3367 17.4284 84.7946 17.3206 84.2471 17.3206C83.6996 17.3206 83.1575 17.4284 82.6517 17.6379C82.1459 17.8474 81.6863 18.1545 81.2992 18.5416C80.9121 18.9287 80.605 19.3883 80.3955 19.8941C80.186 20.3999 80.0781 20.9421 80.0781 21.4895C80.0781 22.037 80.186 22.5791 80.3955 23.0849C80.605 23.5907 80.9121 24.0503 81.2992 24.4375C88.2449 31.3996 92.1455 40.8323 92.1455 50.6666C92.1455 60.5009 88.2449 69.9337 81.2992 76.8958C80.5174 77.6776 80.0781 78.738 80.0781 79.8437C80.0781 80.9494 80.5174 82.0098 81.2992 82.7916C82.081 83.5734 83.1414 84.0127 84.2471 84.0127C85.3528 84.0127 86.4132 83.5734 87.195 82.7916C95.7025 74.2648 100.48 62.7116 100.48 50.6666C100.48 38.6216 95.7025 27.0684 87.195 18.5416Z" fill="#F9F9F9"/>
<path d="M75.9159 31.0458C75.5288 30.6573 75.069 30.3489 74.5626 30.1381C74.0563 29.9273 73.5134 29.8184 72.965 29.8174C72.4165 29.8164 71.8733 29.9235 71.3662 30.1325C70.8591 30.3415 70.3982 30.6483 70.0097 31.0354C69.6212 31.4225 69.3128 31.8824 69.102 32.3887C68.8912 32.895 68.7822 33.4379 68.7813 33.9864C68.7803 34.5348 68.8874 35.0781 69.0963 35.5852C69.3053 36.0922 69.6121 36.5532 69.9993 36.9417C73.6357 40.5837 75.6782 45.52 75.6782 50.6667C75.6782 55.8133 73.6357 60.7496 69.9993 64.3917C69.6121 64.7801 69.3053 65.2411 69.0963 65.7482C68.8874 66.2552 68.7803 66.7985 68.7813 67.3469C68.7822 67.8954 68.8912 68.4383 69.102 68.9446C69.3128 69.4509 69.6212 69.9108 70.0097 70.2979C70.7943 71.0797 71.8573 71.5179 72.965 71.5159C73.5134 71.515 74.0563 71.406 74.5626 71.1952C75.069 70.9844 75.5288 70.676 75.9159 70.2875C81.1131 65.0802 84.032 58.0237 84.032 50.6667C84.032 43.3096 81.1131 36.2531 75.9159 31.0458Z" fill="#F9F9F9"/>
<path d="M58.0833 1.49998C45.4138 3.88026 34.1445 11.041 26.6083 21.5H21.3333C15.8107 21.5088 10.5168 23.7066 6.61168 27.6117C2.70658 31.5168 0.508815 36.8107 0.5 42.3333L0.5 59C0.508815 64.5226 2.70658 69.8165 6.61168 73.7216C10.5168 77.6267 15.8107 79.8245 21.3333 79.8333H26.6083C34.146 90.2907 45.4146 97.451 58.0833 99.8333C58.3318 99.8818 58.5844 99.9056 58.8375 99.9041C59.9426 99.9041 61.0024 99.4651 61.7838 98.6837C62.5652 97.9023 63.0042 96.8425 63.0042 95.7375V5.60831C63.0057 4.99637 62.8724 4.3916 62.6138 3.83698C62.3552 3.28237 61.9776 2.79153 61.5079 2.39934C61.0381 2.00715 60.4878 1.72325 59.8959 1.56781C59.304 1.41237 58.6852 1.38921 58.0833 1.49998ZM54.6667 90.3958C45.4766 87.4662 37.5745 81.4635 32.2875 73.3958C31.9097 72.8147 31.393 72.3369 30.784 72.0059C30.1751 71.6749 29.4931 71.501 28.8 71.5H21.3333C18.0181 71.5 14.8387 70.183 12.4945 67.8388C10.1503 65.4946 8.83333 62.3152 8.83333 59V42.3333C8.83333 39.0181 10.1503 35.8387 12.4945 33.4945C14.8387 31.1503 18.0181 29.8333 21.3333 29.8333H28.8333C29.5257 29.8332 30.2071 29.6606 30.816 29.331C31.4249 29.0015 31.9421 28.5254 32.3208 27.9458C37.597 19.8801 45.487 13.8747 54.6667 10.9375V90.3958Z" fill="#F9F9F9"/>
</g>
<defs>
<clipPath id="clip0_1553_21640">
<rect width="100" height="100" fill="white" transform="translate(0.5 0.666626)"/>
</clipPath>
</defs>
</svg>
